<?xml version="1.0" standalone="no"?>
<!DOCTYPE svg PUBLIC "-//W3C//DTD SVG 20010904//EN"
 "http://www.w3.org/TR/2001/REC-SVG-20010904/DTD/svg10.dtd">
<svg version="1.0" xmlns="http://www.w3.org/2000/svg"
 width="1080.000000pt" height="1080.000000pt" viewBox="0 0 1080.000000 1080.000000"
 preserveAspectRatio="xMidYMid meet">
<metadata>
Created by potrace 1.14, written by Peter Selinger 2001-2017
</metadata>
<g transform="translate(0.000000,1080.000000) scale(0.100000,-0.100000)"
fill="#000000" stroke="none">
<path d="M0 8687 l0 -2114 358 -6 c196 -3 527 -6 735 -7 365 0 377 0 377 19 0
26 10 28 125 26 112 -2 175 -12 155 -25 -23 -14 167 -29 432 -34 81 -1 151 -5
154 -9 4 -4 -19 -7 -52 -7 -32 0 -65 -4 -73 -9 -9 -6 18 -9 70 -9 46 -1 129
-4 184 -7 55 -3 119 -7 143 -9 23 -1 42 1 42 6 0 17 16 7 17 -11 2 -20 0 -21
-157 -24 -59 -1 -70 -8 -70 -46 0 -20 -4 -22 -26 -17 -17 5 -35 1 -50 -9 -29
-19 -31 -35 -4 -35 11 0 20 6 20 14 0 25 25 25 26 0 1 -12 -4 -25 -12 -28 -8
-3 -14 -14 -14 -25 0 -11 -4 -22 -10 -26 -13 -8 -1 -35 16 -35 10 0 13 -7 8
-24 -4 -18 0 -27 16 -36 19 -10 22 -9 27 10 4 13 16 23 35 27 15 3 31 10 34
14 7 13 24 1 24 -17 0 -8 -9 -14 -20 -14 -11 0 -20 -6 -20 -13 0 -9 29 -13
113 -15 61 -1 119 -5 129 -8 9 -2 19 -1 22 4 3 5 26 6 51 2 25 -4 68 -5 94 -2
31 3 51 0 56 -8 11 -19 -2 -24 -65 -25 -33 -1 -63 -4 -66 -8 -4 -4 -18 0 -31
8 -13 9 -23 11 -23 6 0 -6 -28 -8 -72 -5 -52 3 -74 1 -80 -8 -6 -9 -10 -10
-15 -2 -12 18 -53 27 -67 15 -7 -6 -32 -9 -56 -6 -24 2 -50 -1 -57 -7 -9 -7
-13 -7 -13 0 0 16 -41 36 -49 25 -3 -5 -21 -15 -39 -23 -28 -11 -35 -11 -42 0
-4 7 -17 10 -29 7 -11 -3 -36 -1 -56 3 -19 4 -35 5 -35 1 0 -3 -133 -6 -295
-6 -162 0 -295 3 -295 8 0 4 -9 3 -19 -3 -13 -7 -22 -7 -26 0 -10 16 -35 12
-29 -5 7 -18 -7 -20 -24 -3 -10 10 -17 10 -31 1 -13 -8 -31 -9 -53 -4 -18 5
-62 7 -98 6 -92 -4 -89 -4 -255 0 -82 3 -163 5 -179 5 -16 0 -34 -7 -42 -17
-12 -17 -13 -16 -14 6 0 24 0 24 -16 5 -11 -13 -17 -15 -20 -6 -8 18 -64 16
-64 -3 0 -8 -4 -15 -10 -15 -5 0 -7 7 -4 15 4 10 0 15 -14 15 -11 0 -22 -6
-25 -12 -3 -10 -7 -10 -20 1 -15 12 -17 11 -17 -8 0 -29 -45 -30 -53 -1 -4 16
-12 19 -44 16 -21 -2 -42 -5 -48 -7 -5 -1 -18 1 -29 6 -11 5 -21 3 -26 -4 -5
-9 -9 -8 -14 4 -4 11 -12 15 -24 10 -9 -4 -33 -8 -52 -10 -19 -1 -43 -6 -52
-10 -10 -4 -18 -3 -18 3 0 6 -34 10 -80 10 -52 0 -80 -3 -80 -11 0 -6 -7 -2
-15 9 -13 16 -14 16 -9 2 7 -21 -16 -24 -47 -8 -16 9 -19 7 -19 -14 0 -23 3
-24 45 -22 47 4 68 -12 58 -41 -3 -7 0 -13 6 -13 6 0 11 -9 11 -20 0 -27 26
-26 33 1 6 21 10 22 84 15 43 -4 79 -11 81 -17 6 -14 30 -11 40 6 5 10 15 13
25 9 18 -7 23 -24 7 -24 -5 0 -10 -5 -10 -11 0 -6 8 -9 18 -7 9 2 17 11 17 21
0 9 5 16 10 14 6 -1 9 -8 9 -14 -1 -7 2 -13 7 -13 5 0 9 7 9 16 0 13 3 14 14
5 11 -9 16 -9 22 0 5 9 11 7 20 -5 12 -17 13 -17 26 3 20 33 31 25 24 -19 -3
-22 -2 -40 3 -40 5 0 9 6 8 13 -1 47 22 63 52 35 10 -11 12 -9 9 7 -2 12 -16
23 -36 29 -38 11 -41 22 -7 28 17 4 25 1 25 -8 0 -17 36 -18 46 -2 10 16 21
-21 24 -77 1 -32 3 -36 10 -20 4 11 6 36 3 56 -4 28 -1 38 11 42 10 4 15 3 11
-2 -14 -23 8 -41 49 -41 23 0 47 -5 54 -12 18 -18 28 0 13 23 -17 28 -6 37 18
15 13 -12 27 -15 41 -11 15 5 26 1 36 -12 13 -17 15 -17 28 0 16 21 46 23 46
2 0 -8 7 -15 16 -15 13 0 14 3 5 14 -14 17 2 32 22 19 15 -10 60 -12 67 -3 3
4 39 3 80 -2 41 -5 87 -9 103 -9 15 0 27 -5 27 -10 0 -5 5 -9 10 -9 6 0 10 7
10 16 0 11 8 15 32 12 27 -2 33 1 39 22 6 23 7 23 8 3 1 -12 6 -25 12 -29 6
-3 9 -14 6 -23 -3 -11 2 -17 14 -18 12 -1 19 5 19 16 0 25 11 33 26 20 10 -8
22 -7 45 5 18 9 39 16 48 16 14 -1 14 -2 -2 -14 -21 -16 -22 -26 -1 -26 9 0
14 -6 12 -12 -5 -15 20 -43 30 -34 3 4 2 10 -4 14 -6 4 -14 17 -18 30 -6 17
-3 22 12 22 13 0 22 -11 29 -37 10 -34 11 -36 18 -16 8 26 23 30 31 8 9 -21
24 -19 24 4 0 12 9 20 25 23 17 4 25 1 25 -8 0 -8 -5 -13 -12 -11 -6 1 -13 -5
-15 -14 -3 -13 4 -16 34 -15 32 1 39 -3 41 -20 2 -16 8 -20 27 -17 18 4 27 -1
37 -22 13 -23 16 -25 27 -11 8 9 21 16 30 16 13 0 13 -2 2 -9 -14 -9 -7 -51
10 -51 9 0 11 7 13 45 1 14 8 20 25 20 19 0 27 -8 37 -40 6 -22 12 -32 13 -22
1 18 21 25 21 7 0 -7 6 -7 20 0 16 8 20 8 20 -4 0 -8 -4 -17 -8 -20 -12 -7 1
-80 13 -75 6 2 10 21 10 41 0 20 7 44 15 52 13 13 17 12 34 -11 18 -25 18 -25
-3 -18 -26 8 -29 -16 -4 -36 10 -8 14 -9 10 -2 -4 6 -3 14 2 17 5 3 11 -1 15
-9 3 -8 12 -12 21 -9 8 4 17 0 21 -9 3 -8 13 -13 23 -10 9 2 37 -3 61 -12 25
-9 61 -21 80 -26 19 -6 45 -15 57 -21 28 -14 41 -4 23 17 -7 8 -9 15 -4 16 5
0 24 2 43 5 l35 4 -23 -24 c-19 -20 -20 -24 -6 -30 9 -3 168 -8 353 -11 185
-3 357 -8 382 -10 25 -3 115 -5 202 -6 l156 0 4 -60 c1 -33 0 -68 -4 -77 -4
-9 -7 -48 -7 -86 -1 -38 -4 -66 -8 -62 -4 4 -8 16 -8 27 0 19 -10 20 -360 24
-484 7 -2837 7 -2843 0 -3 -3 51 -5 121 -5 109 0 127 -2 136 -17 8 -15 10 -15
11 -3 0 12 13 16 56 16 43 1 54 -2 50 -12 -7 -17 10 -19 17 -1 4 9 8 8 16 -3
7 -10 11 -11 11 -2 0 6 9 12 20 12 11 0 20 -6 20 -13 0 -9 17 -13 53 -14 28
-1 120 -4 202 -7 165 -7 246 -7 287 -2 16 2 33 -3 38 -10 11 -12 34 -9 82 11
11 4 16 1 15 -11 -2 -14 10 -17 92 -18 72 -1 95 2 99 13 4 10 8 8 14 -9 7 -18
11 -20 23 -10 12 10 18 10 29 1 11 -10 16 -8 24 6 10 17 12 16 36 -6 l25 -23
26 20 c27 22 65 19 65 -4 0 -8 7 -14 15 -14 8 0 15 7 15 16 0 11 6 14 23 9 12
-4 29 -8 37 -11 9 -2 31 1 50 6 26 7 36 7 41 -3 5 -8 28 -12 68 -11 34 1 64
-2 67 -7 3 -6 11 -5 20 2 7 6 21 9 29 5 8 -3 15 0 15 7 0 8 3 7 9 -2 5 -8 20
-15 33 -17 12 -1 42 -5 66 -7 23 -3 42 -2 42 3 0 4 51 7 113 5 137 -3 128 -2
121 -20 -4 -8 -1 -22 5 -29 8 -10 9 -16 1 -21 -5 -3 -10 -12 -10 -18 1 -7 6
-5 13 4 7 9 27 20 46 24 24 5 30 10 20 16 -8 5 -21 6 -30 3 -19 -5 -36 26 -20
36 6 3 28 4 50 2 36 -4 39 -6 31 -22 -14 -26 -13 -28 13 -32 12 -2 21 -9 19
-17 -1 -7 3 -20 9 -28 11 -12 8 -13 -16 -7 l-28 7 8 -69 c4 -38 11 -70 16 -72
5 -2 9 -8 9 -13 0 -6 -4 -7 -10 -4 -5 3 -10 -3 -10 -14 0 -14 5 -19 16 -14 11
4 14 0 12 -18 -2 -13 2 -24 7 -24 6 0 9 6 9 13 -1 7 3 12 10 11 27 -3 35 3 38
29 4 22 6 24 12 9 12 -26 -1 -68 -19 -61 -10 4 -15 0 -15 -15 0 -22 14 -28 25
-11 9 14 24 3 24 -18 -1 -44 10 -164 14 -168 3 -3 6 26 7 63 2 91 2 84 -5 201
-5 86 -4 102 9 102 11 0 14 -12 13 -47 -2 -41 1 -48 17 -48 24 0 29 -15 17
-46 -7 -17 -10 -19 -10 -6 -1 26 -21 20 -21 -7 0 -23 27 -40 58 -37 6 1 12 -3
12 -10 0 -7 -13 -10 -36 -7 l-36 4 7 -45 c8 -56 12 -62 30 -54 10 3 15 -1 15
-12 0 -12 -5 -15 -20 -10 -16 5 -20 2 -20 -19 0 -26 14 -35 25 -15 10 14 46
-57 39 -76 -7 -17 4 -70 13 -62 3 3 9 21 13 39 7 30 8 28 10 -22 2 -30 4 -71
6 -90 1 -19 -2 -41 -8 -48 -19 -22 8 -40 29 -19 11 11 13 17 5 17 -7 0 -12 7
-12 15 0 8 6 12 15 9 20 -8 31 41 15 71 -7 13 -10 31 -6 40 3 9 0 18 -9 21
-23 9 -18 48 9 73 18 17 26 19 31 10 5 -7 1 -17 -8 -24 -17 -12 -24 -45 -9
-45 15 0 19 -98 7 -182 -7 -50 -6 -58 9 -58 11 0 16 9 16 28 0 16 3 32 7 35
11 12 14 85 3 92 -5 3 -10 15 -10 26 0 16 5 19 20 14 13 -4 22 -1 26 10 5 12
9 13 20 4 21 -17 17 -28 -11 -35 -27 -7 -34 -24 -10 -24 17 0 20 -26 4 -36
-17 -10 12 -25 36 -18 19 5 19 4 3 -9 -24 -19 -23 -43 2 -50 24 -6 16 -39 -8
-35 -18 3 -23 -20 -9 -39 5 -7 6 -16 3 -21 -3 -5 -1 -24 4 -41 6 -23 5 -39 -3
-53 -10 -16 -9 -22 1 -25 10 -4 10 -8 2 -19 -7 -7 -9 -18 -5 -23 6 -11 33 0
69 29 10 8 21 14 25 14 23 -5 51 18 52 43 1 18 3 22 6 10 3 -10 10 -16 16 -14
9 3 14 80 17 268 4 170 10 273 17 289 12 26 35 169 37 228 1 17 4 32 9 32 4 0
7 11 7 24 0 13 7 37 15 52 8 16 15 41 15 55 0 15 8 33 17 40 15 13 16 11 9
-11 -44 -155 -59 -231 -69 -365 -6 -89 -14 -140 -18 -125 -15 56 -20 -15 -17
-240 l3 -233 60 1 c33 0 89 5 125 11 84 14 82 14 79 -7 -4 -39 2 -83 10 -78 4
3 6 17 3 31 -4 23 -1 25 31 25 25 0 37 5 41 18 5 14 15 16 56 14 50 -4 50 -4
52 -40 1 -38 3 -72 6 -109 2 -17 7 -20 25 -15 12 3 27 13 34 21 11 14 12 14
13 -4 0 -33 -12 -65 -24 -65 -17 0 -38 -38 -25 -45 5 -4 16 -2 24 5 9 8 15 8
20 0 16 -26 25 8 24 93 -2 130 -2 130 21 124 11 -3 20 -1 20 4 0 5 -4 9 -10 9
-5 0 -10 5 -10 11 0 13 70 8 71 -6 0 -5 5 -16 11 -22 7 -9 7 -17 -2 -28 -7 -8
-9 -23 -4 -37 7 -22 6 -89 -2 -268 -4 -82 -4 -92 -2 -117 1 -10 -2 -40 -6 -66
-5 -35 -1 -66 14 -117 19 -65 22 -69 41 -59 12 6 32 8 45 5 23 -6 24 -4 24 44
0 28 -4 49 -8 46 -4 -2 -8 29 -9 70 -2 67 0 74 18 74 11 0 23 10 28 23 11 28
6 37 -21 37 -18 0 -20 4 -14 33 3 17 14 38 23 44 9 7 14 16 10 19 -4 4 -14 1
-24 -7 -15 -12 -16 -12 -10 4 4 10 7 20 7 23 0 2 7 1 15 -2 8 -4 15 -1 15 5 0
6 -6 11 -14 11 -29 0 -36 73 -8 89 14 9 14 12 3 20 -7 5 -15 29 -18 53 -5 45
-5 45 26 50 18 3 34 1 37 -4 3 -5 10 -6 15 -3 14 9 30 -5 22 -18 -11 -17 -13
-56 -3 -62 20 -13 40 41 40 108 0 86 24 137 78 165 21 11 44 17 51 13 6 -4 29
-6 51 -4 21 1 42 -2 45 -7 3 -6 12 -10 20 -10 14 0 15 17 1 38 -7 11 -4 12 13
3 11 -6 25 -20 31 -32 12 -21 32 -17 28 6 -2 8 2 14 7 13 6 0 9 -4 7 -9 -1 -5
2 -9 8 -9 5 0 10 7 10 16 0 12 6 15 24 10 15 -4 28 0 36 9 7 9 21 13 34 9 30
-7 96 32 96 57 0 10 6 19 14 19 28 0 46 -13 46 -32 0 -17 5 -20 28 -15 36 7
56 -5 48 -29 -3 -11 -1 -26 4 -34 8 -12 13 -13 29 -3 17 11 19 10 15 -2 -4 -9
-20 -15 -42 -15 -31 0 -34 -2 -19 -13 12 -9 15 -22 10 -55 -8 -62 -30 -53 -24
11 1 9 -3 17 -8 17 -12 0 -14 -11 -11 -47 1 -15 -4 -23 -14 -23 -9 0 -16 7
-16 16 0 8 -4 12 -10 9 -5 -3 -10 -18 -10 -32 0 -19 4 -24 16 -19 30 11 34 -5
10 -37 -13 -18 -27 -46 -31 -64 -3 -17 -13 -34 -21 -37 -8 -3 -14 -12 -12 -20
2 -8 -1 -15 -7 -15 -5 -1 -10 6 -10 14 0 8 -3 15 -7 15 -50 1 -51 0 -37 -16
11 -14 11 -18 -4 -29 -14 -10 -16 -18 -7 -39 16 -42 12 -52 -10 -28 -12 12
-22 22 -23 22 -8 0 -3 -58 6 -68 8 -10 7 -16 -3 -22 -19 -12 -34 14 -26 46 4
14 2 24 -4 24 -11 0 -11 0 -14 -53 -2 -25 2 -41 11 -44 20 -8 5 -23 -23 -23
-14 0 -22 -4 -19 -10 3 -5 17 -10 31 -10 21 0 23 -2 12 -14 -7 -8 -14 -10 -16
-5 -4 11 -42 12 -42 1 0 -4 4 -12 9 -18 4 -5 11 -22 15 -38 6 -23 4 -27 -8
-23 -8 3 -17 -1 -20 -9 -8 -22 -8 -24 7 -24 10 0 13 -11 12 -35 -3 -45 -7 -49
-50 -47 -29 1 -35 -2 -35 -19 0 -15 5 -19 15 -15 23 8 18 -8 -10 -34 -14 -13
-25 -29 -25 -36 0 -24 -23 -27 -40 -7 -10 13 -33 22 -66 26 -32 4 -55 13 -66
27 -9 11 -21 20 -26 20 -5 0 -12 7 -16 15 -8 22 -26 18 -26 -5 0 -13 -5 -18
-15 -14 -12 5 -15 -6 -16 -65 -1 -39 -2 -77 -3 -83 -1 -7 9 -14 22 -16 24 -4
31 -22 7 -22 -9 0 -15 -9 -15 -24 0 -25 -22 -51 -34 -39 -4 4 -26 7 -49 6 -25
-1 -31 1 -14 4 15 2 27 11 27 19 0 13 -6 15 -50 19 -8 0 -21 5 -29 10 -10 6
-19 2 -29 -13 -24 -36 -112 -28 -112 10 0 10 -5 16 -10 13 -6 -4 -8 -10 -5
-15 9 -15 -25 -20 -76 -10 -67 13 -182 13 -195 0 -6 -6 -77 -12 -160 -15 -161
-5 -190 -8 -200 -18 -11 -10 -24 -8 -24 3 0 6 6 10 14 10 18 0 24 44 22 162
-2 75 -6 102 -19 116 -19 21 -23 57 -7 67 5 3 10 1 10 -6 0 -7 2 -10 5 -7 3 3
8 31 10 62 l5 57 -28 -3 c-31 -3 -39 -27 -41 -124 0 -33 -6 -65 -13 -72 -9 -9
-9 -28 0 -79 7 -37 13 -96 15 -130 l3 -63 -47 0 -47 0 3 32 c5 50 -17 181 -33
198 -12 13 -13 11 -8 -20 7 -33 6 -34 -9 -15 -9 11 -18 29 -20 40 -2 11 -8 45
-13 75 -10 54 -10 54 -11 -40 -1 -108 -6 -173 -13 -186 -7 -13 -9 -86 -2 -107
5 -16 8 -16 43 4 32 18 37 25 33 50 -3 17 0 29 7 29 6 0 11 -18 11 -41 l0 -42
60 6 c59 7 185 -1 176 -11 -3 -2 -26 -6 -52 -8 -26 -1 -51 -9 -57 -18 -9 -11
-37 -17 -97 -20 -92 -5 -200 -34 -178 -48 15 -9 7 -11 -37 -9 -22 1 -26 -1
-15 -8 15 -9 33 -9 170 3 79 7 98 2 80 -19 -17 -21 -11 -24 41 -29 33 -2 48 1
59 15 20 23 74 30 76 9 2 -28 4 -29 31 -19 27 10 27 10 8 -10 -20 -23 -72 -26
-185 -13 -33 4 -79 2 -115 -6 -33 -7 -67 -13 -75 -14 -49 -1 -137 -28 -192
-58 -10 -6 -27 -10 -38 -10 -12 0 -18 -5 -15 -10 4 -6 11 -8 16 -4 5 3 16 0
24 -6 10 -8 32 -10 67 -6 124 15 191 17 201 7 8 -8 5 -11 -11 -11 -15 0 -22
-6 -22 -20 0 -15 7 -20 26 -20 14 0 23 -4 20 -8 -3 -5 -15 -8 -28 -7 -13 1
-31 -2 -41 -7 -11 -5 -62 -12 -115 -14 -69 -3 -115 -12 -166 -30 -39 -14 -83
-27 -97 -27 -14 -1 -33 -8 -42 -15 -9 -8 -21 -10 -28 -6 -9 5 -10 -1 -5 -21 7
-26 6 -27 -9 -15 -14 12 -18 12 -26 -1 -20 -32 -1 -45 47 -29 26 9 32 15 25
24 -13 15 5 36 31 36 23 0 24 -16 2 -24 -36 -14 -3 -16 61 -5 45 8 70 8 77 1
7 -7 0 -12 -20 -17 -37 -8 -47 -20 -56 -62 -7 -28 -13 -33 -59 -43 -29 -7 -60
-17 -69 -21 -10 -5 -39 -12 -65 -15 -27 -3 -57 -14 -69 -25 -11 -10 -28 -19
-38 -19 -9 0 -26 -9 -38 -20 -16 -15 -18 -20 -7 -20 8 0 20 5 25 10 8 8 15 6
24 -5 10 -12 10 -15 -1 -15 -11 0 -11 -2 1 -10 10 -6 20 -5 30 4 21 18 50 27
50 16 0 -15 37 -12 43 4 3 8 21 14 44 14 70 1 152 12 180 24 15 6 72 12 125
12 86 1 98 -1 98 -16 0 -19 -55 -34 -87 -24 -13 4 -26 -1 -38 -14 -10 -11 -26
-20 -35 -20 -10 0 -30 -7 -46 -15 -25 -13 -30 -13 -45 1 -12 11 -19 12 -24 4
-4 -6 -13 -9 -21 -6 -7 3 -16 1 -19 -4 -4 -6 -16 -10 -28 -10 -12 0 -27 -8
-34 -18 -12 -20 -95 -48 -126 -43 -10 1 -29 -5 -43 -13 -13 -9 -24 -14 -24
-10 0 3 -16 -6 -36 -21 -19 -15 -38 -24 -41 -21 -3 3 -18 -3 -32 -13 -14 -10
-47 -28 -73 -41 -25 -12 -64 -40 -85 -61 -21 -21 -43 -38 -48 -39 -6 0 -17 -8
-26 -18 -8 -9 -30 -29 -48 -43 -45 -36 -33 -56 17 -29 20 11 44 25 52 30 8 5
44 23 80 40 36 17 81 39 100 50 19 11 107 43 195 71 88 28 169 55 180 59 11 5
31 11 45 14 14 3 54 12 90 20 36 8 121 18 190 20 l125 5 -105 -13 c-58 -8
-123 -21 -145 -30 -21 -9 -78 -25 -126 -36 -48 -10 -107 -28 -130 -39 -24 -12
-50 -21 -59 -21 -9 0 -25 -9 -35 -20 -10 -11 -27 -20 -38 -20 -11 0 -35 -11
-53 -25 -18 -14 -35 -25 -39 -25 -3 0 -15 -9 -27 -20 -12 -11 -29 -20 -37 -20
-9 0 -25 -7 -35 -15 -11 -8 -27 -15 -36 -15 -9 0 -22 -11 -28 -25 -6 -14 -17
-25 -24 -25 -21 -1 -51 -49 -42 -68 4 -9 6 -27 5 -39 -1 -13 0 -23 4 -23 14 0
55 34 55 46 0 8 6 11 16 7 10 -4 22 0 28 8 19 26 104 62 131 55 13 -3 27 -2
30 4 3 5 -1 10 -9 10 -9 0 -16 5 -16 11 0 6 7 9 15 5 22 -8 44 3 59 31 13 25
71 53 111 53 12 0 26 5 33 12 8 8 15 8 26 -1 10 -8 16 -9 21 -1 3 5 15 10 25
10 10 0 22 9 25 20 9 29 70 56 143 64 53 6 62 5 62 -9 0 -9 -5 -13 -10 -10
-16 10 -50 -5 -50 -21 0 -17 31 -19 48 -2 8 8 12 9 12 1 0 -23 -12 -43 -26
-43 -8 0 -14 -4 -14 -10 0 -5 -11 -10 -24 -10 -14 0 -28 -4 -31 -10 -3 -5 -17
-10 -29 -10 -13 0 -37 -7 -52 -15 -16 -8 -36 -15 -45 -15 -8 0 -24 -7 -35 -15
-10 -8 -27 -15 -37 -15 -10 0 -28 -10 -41 -23 -12 -12 -41 -29 -64 -36 -41
-14 -56 -31 -27 -31 8 0 15 6 15 13 0 8 3 8 9 -2 7 -11 3 -18 -16 -28 -28 -15
-43 -10 -43 14 0 14 -4 13 -23 -5 -13 -12 -29 -22 -36 -22 -15 0 -77 -50 -74
-60 1 -4 -4 -7 -10 -7 -7 0 -31 -12 -54 -26 -24 -15 -46 -27 -50 -27 -5 0 -36
-32 -71 -70 -35 -39 -68 -70 -74 -70 -6 0 -20 8 -31 18 -20 17 -20 16 -13 -17
8 -45 34 -75 52 -60 8 7 14 7 19 -1 4 -7 11 -5 21 5 9 8 21 15 29 15 24 0 65
27 109 71 89 89 94 93 111 79 13 -10 15 -9 15 7 0 21 34 63 51 63 6 0 31 18
56 40 48 42 103 55 103 25 0 -8 11 -17 25 -21 31 -8 31 -15 0 -42 -31 -27 -35
-27 -35 -1 0 11 5 17 10 14 6 -3 10 -2 10 3 0 11 -30 25 -31 14 -1 -13 -8 -46
-13 -66 -7 -25 -60 -61 -104 -71 -18 -3 -37 -15 -42 -26 -6 -10 -17 -19 -25
-19 -9 0 -15 -10 -15 -25 0 -16 6 -25 15 -25 8 0 15 -6 15 -12 0 -9 3 -9 8 -2
10 15 115 46 170 50 48 4 58 9 76 44 12 24 35 34 156 71 41 12 82 30 90 39 9
9 27 20 42 23 15 4 33 14 42 22 24 24 56 19 56 -9 0 -14 4 -27 10 -31 15 -9 0
-35 -32 -51 -45 -23 -149 -55 -160 -48 -15 9 -3 29 17 29 10 0 20 6 22 13 6
15 -19 16 -34 1 -6 -6 -26 -12 -44 -13 -18 -1 -35 -8 -37 -15 -3 -10 2 -12 21
-7 22 5 26 3 24 -14 -1 -12 -10 -23 -23 -26 -13 -3 -25 -12 -28 -20 -3 -9 -20
-14 -46 -14 -50 0 -131 -21 -149 -38 -12 -11 -15 -11 -22 0 -7 11 -11 10 -19
-2 -5 -8 -10 -25 -10 -37 0 -13 -12 -29 -32 -42 -18 -11 -43 -28 -55 -37 -14
-10 -23 -12 -23 -5 0 6 5 11 10 11 6 0 10 14 10 32 0 25 -3 29 -12 20 -7 -7
-21 -12 -31 -12 -10 0 -21 -9 -24 -20 -7 -25 -19 -26 -25 -3 -8 29 2 43 28 43
13 0 24 5 24 11 0 7 -10 9 -25 5 -16 -4 -25 -2 -25 5 0 8 -7 6 -18 -4 -10 -10
-24 -17 -30 -17 -7 0 -12 -5 -12 -11 0 -6 9 -8 21 -4 15 5 19 4 14 -4 -4 -7
-2 -18 4 -25 6 -7 8 -21 5 -30 -4 -10 0 -22 11 -30 17 -12 17 -14 0 -39 -9
-15 -21 -27 -25 -27 -3 0 -26 -18 -49 -40 -23 -22 -34 -37 -26 -34 10 4 15 0
15 -10 0 -9 -7 -16 -16 -16 -41 0 -105 -65 -89 -90 8 -13 65 0 93 19 15 11 20
23 17 38 -4 17 -2 21 10 17 8 -4 17 1 21 10 3 9 17 16 30 16 13 0 24 5 24 10
0 6 8 14 18 18 38 16 92 58 92 73 0 11 10 16 37 17 20 1 41 6 47 12 16 16 36
12 36 -9 0 -14 7 -19 25 -17 14 0 25 6 25 13 0 6 -9 9 -20 6 -16 -4 -20 0 -20
22 0 22 4 26 20 22 11 -3 20 -1 20 4 0 13 42 49 59 49 8 0 23 7 33 17 23 20
36 9 20 -17 -10 -17 -10 -20 4 -20 8 0 13 -4 10 -9 -10 -15 5 -41 23 -42 13 0
13 -2 1 -6 -8 -4 -21 -12 -28 -20 -7 -7 -21 -13 -30 -13 -10 0 -28 -7 -40 -16
-12 -8 -33 -17 -45 -18 -13 -1 -34 -10 -46 -18 -13 -9 -28 -15 -35 -12 -6 2
-20 -9 -31 -26 -11 -16 -23 -30 -27 -30 -5 0 -8 -7 -8 -15 0 -9 -9 -15 -24
-15 -14 0 -28 -4 -31 -10 -11 -17 -33 -11 -40 11 -4 12 -10 18 -14 13 -3 -5
-19 -10 -34 -11 -39 -1 -42 -8 -20 -36 17 -22 21 -23 29 -9 6 9 15 12 22 8 19
-12 14 -23 -18 -36 -17 -7 -33 -22 -36 -35 -6 -23 -29 -35 -70 -35 -11 0 -33
-14 -49 -30 -16 -17 -35 -28 -41 -26 -7 3 -15 -10 -19 -32 -4 -20 -15 -48 -26
-63 -10 -15 -19 -30 -19 -33 0 -3 -10 -16 -23 -30 -12 -13 -31 -56 -41 -95
-10 -39 -27 -80 -37 -92 -10 -12 -21 -30 -25 -41 -7 -22 6 -40 14 -19 3 8 22
33 43 56 22 23 39 50 39 59 0 9 4 16 8 16 4 0 19 18 32 40 14 22 29 40 33 40
12 0 110 100 130 133 21 33 32 29 41 -15 7 -32 7 -32 22 -13 8 11 19 20 25 20
13 0 29 26 29 47 0 11 -5 15 -15 12 -9 -4 -15 0 -15 10 0 11 9 16 26 16 17 0
28 6 31 20 3 11 11 20 17 20 7 0 27 11 46 25 34 25 70 33 70 16 0 -5 11 -12
24 -15 13 -3 32 -9 43 -13 16 -6 16 -5 5 9 -7 9 -15 37 -18 62 -5 49 -9 45 89
85 37 15 37 15 37 -13 0 -13 6 -27 13 -30 8 -3 7 -8 -5 -16 -10 -6 -18 -18
-18 -26 0 -8 -16 -24 -35 -35 -19 -12 -35 -25 -35 -30 0 -13 -72 -41 -93 -35
-12 3 -22 -5 -32 -23 -7 -15 -33 -40 -56 -55 -24 -17 -37 -31 -31 -35 7 -4 8
-12 2 -21 -5 -9 -5 -19 1 -27 7 -8 7 -18 -1 -32 -7 -15 -8 -27 0 -40 13 -26
13 -31 -5 -31 -8 0 -15 -7 -15 -16 0 -23 -48 -66 -90 -81 -41 -15 -50 -16 -49
-5 1 4 1 17 0 30 -1 30 -21 28 -21 -3 0 -14 -4 -25 -10 -25 -5 0 -10 -7 -10
-16 0 -10 7 -14 22 -12 15 2 24 -3 26 -14 2 -11 -3 -18 -12 -18 -9 0 -16 -4
-16 -9 0 -6 -15 -26 -33 -46 -25 -27 -40 -36 -58 -33 -20 2 -24 8 -22 33 2 27
1 28 -11 13 -7 -10 -18 -18 -25 -18 -6 0 -11 -9 -11 -20 0 -23 -4 -24 -29 -8
-31 19 -65 -3 -90 -59 -13 -26 -32 -58 -44 -70 -29 -33 -36 -124 -11 -150 52
-55 80 -105 68 -124 -8 -13 -32 14 -40 45 -3 15 -9 24 -12 21 -3 -3 -16 16
-29 42 l-24 48 5 -48 c4 -47 42 -120 58 -111 4 3 8 -1 8 -9 0 -8 9 -22 20 -32
11 -10 19 -25 18 -33 -2 -8 3 -17 11 -20 10 -3 12 0 8 12 -4 9 -2 16 3 16 6 0
10 -15 10 -34 0 -41 25 -113 47 -138 15 -17 15 -19 0 -36 -19 -20 -23 -72 -6
-72 5 0 15 -14 20 -30 l11 -30 610 0 c351 0 607 4 604 9 -8 12 21 34 34 26 8
-5 8 -11 -1 -21 -10 -12 498 -14 3652 -12 l3664 3 3 5397 2 5398 -5400 0
-5400 0 0 -2113z m4217 911 c-2 -13 -4 -5 -4 17 -1 22 1 32 4 23 2 -10 2 -28
0 -40z m-31 -140 c-8 -23 -15 -36 -16 -27 0 21 21 81 27 75 2 -2 -2 -24 -11
-48z m-25 -79 c-5 -13 -10 -19 -10 -12 -1 15 10 45 15 40 3 -2 0 -15 -5 -28z
m-35 -151 c-28 -159 -45 -250 -60 -323 -9 -38 -19 -106 -22 -150 -4 -44 -10
-89 -15 -100 -26 -67 12 219 65 489 20 98 36 181 36 184 0 3 3 3 6 -1 3 -3 -2
-47 -10 -99z m-109 -630 c-3 -7 -5 -2 -5 12 0 14 2 19 5 13 2 -7 2 -19 0 -25z
m-30 -190 c-3 -8 -6 -5 -6 6 -1 11 2 17 5 13 3 -3 4 -12 1 -19z m0 -50 c-3 -8
-6 -5 -6 6 -1 11 2 17 5 13 3 -3 4 -12 1 -19z m23 -83 c0 -8 -4 -15 -10 -15
-5 0 -10 7 -10 15 0 8 5 15 10 15 6 0 10 -7 10 -15z m14 -267 c3 -18 1 -40 -4
-48 -7 -12 -9 -11 -9 5 1 11 -1 76 -4 145 -5 116 -5 118 2 28 5 -54 11 -112
15 -130z m-2654 -425 c0 -54 -26 -133 -54 -163 -13 -14 -26 -36 -29 -50 -4
-14 -24 -53 -47 -87 -22 -34 -40 -71 -40 -83 0 -11 -4 -20 -8 -20 -8 0 0 -79
14 -133 5 -21 9 -25 15 -15 7 10 9 10 9 -3 0 -9 7 -16 15 -16 8 0 17 7 20 16
3 9 18 24 35 33 l30 17 0 -34 c0 -19 4 -35 9 -35 11 0 22 69 15 98 -6 20 -3
22 32 24 37 1 38 1 7 5 -27 4 -33 9 -33 29 0 18 5 24 21 24 12 0 27 8 34 17
11 14 42 17 239 22 124 3 226 3 226 -1 0 -26 -16 -38 -49 -39 -32 0 -34 -1
-13 -10 13 -5 28 -7 33 -3 5 3 9 2 9 -3 0 -18 -58 -33 -129 -35 -71 -2 -70 -2
29 -7 l105 -6 -4 -50 c-11 -149 -18 -207 -20 -170 l-3 40 -9 -30 c-21 -68 -19
-157 2 -124 6 10 9 8 9 -9 0 -13 -4 -20 -10 -17 -9 5 -15 -11 -22 -60 -3 -19
-11 -20 -258 -21 -354 0 -344 -2 -373 51 -22 39 -63 172 -74 238 -9 56 26 188
71 267 24 42 49 74 56 72 9 -2 11 6 7 33 -3 20 -2 33 3 30 15 -9 32 77 26 128
-7 48 -7 48 21 45 26 -3 27 -5 26 -53 l-2 -50 14 33 c9 18 17 56 19 85 5 62 4
57 16 57 6 0 10 -17 10 -37z m560 22 c-10 -12 -10 -27 0 -75 12 -58 23 -73 34
-47 3 6 3 -1 -1 -18 -11 -58 -19 -59 -44 -3 l-24 53 -3 -35 c-4 -46 12 -116
26 -113 7 2 8 -7 2 -29 -5 -17 -11 -33 -14 -35 -11 -11 -50 99 -55 157 l-6 65
-185 6 -185 5 213 0 212 -1 0 43 c0 36 3 42 21 42 18 0 19 -2 9 -15z m2154
-45 c7 -53 1 -44 -13 19 -5 24 -6 39 -1 35 4 -5 11 -29 14 -54z m-2014 19 c0
-5 -4 -9 -10 -9 -5 0 -10 7 -10 16 0 8 5 12 10 9 6 -3 10 -10 10 -16z m7215 1
c3 -5 -3 -10 -15 -10 -12 0 -18 5 -15 10 3 6 10 10 15 10 5 0 12 -4 15 -10z
m-5260 -50 c3 -5 -1 -10 -10 -10 -9 0 -13 5 -10 10 3 6 8 10 10 10 2 0 7 -4
10 -10z m3083 -12 c-6 -18 -28 -21 -28 -4 0 9 7 16 16 16 9 0 14 -5 12 -12z
m2560 3 c55 -2 35 -21 -23 -21 -40 0 -55 4 -55 14 0 8 9 12 23 11 12 -1 37 -3
55 -4z m-3508 -26 c0 -8 -4 -15 -10 -15 -5 0 -10 7 -10 15 0 8 5 15 10 15 6 0
10 -7 10 -15z m1110 -1 c0 -8 -4 -12 -10 -9 -5 3 -10 10 -10 16 0 5 5 9 10 9
6 0 10 -7 10 -16z m-2370 -4 c0 -5 -2 -10 -4 -10 -3 0 -8 5 -11 10 -3 6 -1 10
4 10 6 0 11 -4 11 -10z m2070 -5 c0 -8 -4 -15 -10 -15 -5 0 -10 7 -10 15 0 8
5 15 10 15 6 0 10 -7 10 -15z m-2873 -62 c-2 -16 -4 -5 -4 22 0 28 2 40 4 28
2 -13 2 -35 0 -50z m3358 57 c3 -5 2 -10 -4 -10 -5 0 -13 5 -16 10 -3 6 -2 10
4 10 5 0 13 -4 16 -10z m290 0 c3 -5 -3 -10 -15 -10 -12 0 -18 5 -15 10 3 6
10 10 15 10 5 0 12 -4 15 -10z m355 -10 c0 -5 -4 -10 -10 -10 -5 0 -10 5 -10
10 0 6 5 10 10 10 6 0 10 -4 10 -10z m385 0 c-3 -5 -10 -10 -16 -10 -5 0 -9 5
-9 10 0 6 7 10 16 10 8 0 12 -4 9 -10z m745 -5 c0 -8 -4 -15 -9 -15 -13 0 -22
16 -14 24 11 11 23 6 23 -9z m770 0 c0 -8 -7 -15 -15 -15 -8 0 -15 7 -15 15 0
8 7 15 15 15 8 0 15 -7 15 -15z m-1285 -4 c3 -5 1 -12 -5 -16 -5 -3 -10 1 -10
9 0 18 6 21 15 7z m75 -7 c0 -8 -4 -12 -10 -9 -5 3 -10 10 -10 16 0 5 5 9 10
9 6 0 10 -7 10 -16z m490 -51 c0 -20 -3 -24 -11 -16 -7 7 -9 19 -6 27 10 24
17 19 17 -11z m300 -2 c0 -14 -18 -23 -30 -16 -6 4 -8 11 -5 16 8 12 35 12 35
0z m-7562 -53 c92 -144 90 -298 -6 -553 -14 -38 -33 -81 -41 -94 -26 -41 -25
-3 2 62 79 190 75 321 -13 452 -41 62 -49 85 -27 85 32 -1 115 -184 118 -260
1 -22 2 -20 11 9 10 36 6 133 -7 186 -5 17 -25 56 -47 88 -21 32 -38 63 -38
68 0 21 17 6 48 -43z m2073 -158 c-6 -47 -15 -166 -21 -265 -13 -244 -37 -416
-60 -439 -6 -6 -6 4 0 25 15 59 29 196 45 429 8 124 19 252 25 285 5 33 11 78
12 100 l1 40 5 -45 c2 -25 -1 -83 -7 -130z m-2263 110 c35 0 43 -3 39 -15 -4
-8 -1 -18 6 -22 23 -14 -67 -22 -266 -22 -155 -1 -198 2 -195 12 3 6 20 15 39
18 l34 6 -34 2 c-19 0 -31 4 -28 8 11 11 178 22 271 17 49 -2 109 -4 134 -4z
m1362 -130 c0 -5 -4 -10 -10 -10 -5 0 -10 5 -10 10 0 6 5 10 10 10 6 0 10 -4
10 -10z m-2097 -259 c9 -27 17 -56 17 -65 0 -9 5 -16 10 -16 6 0 10 -8 10 -17
0 -21 23 -90 33 -99 17 -18 3 -25 -40 -23 -60 3 -73 8 -73 25 0 8 -4 14 -9 14
-5 0 -7 -10 -3 -22 3 -14 2 -19 -6 -14 -7 4 -12 13 -12 21 0 7 -3 15 -7 17
-14 6 -85 99 -80 104 2 3 24 -18 48 -47 24 -28 45 -47 46 -42 2 5 -8 34 -22
64 -13 30 -25 60 -25 68 0 27 33 -12 61 -74 16 -33 28 -56 29 -52 0 14 -33
112 -41 122 -15 16 -11 48 6 41 11 -4 15 1 15 19 0 42 24 28 43 -24z m4674
-23 c-3 -8 -6 -5 -6 6 -1 11 2 17 5 13 3 -3 4 -12 1 -19z m-4772 -178 c3 -5 1
-10 -4 -10 -6 0 -11 5 -11 10 0 6 2 10 4 10 3 0 8 -4 11 -10z m865 6 c0 -2 -7
-6 -15 -10 -8 -3 -15 -1 -15 4 0 6 7 10 15 10 8 0 15 -2 15 -4z m3907 -98 c-3
-8 -6 -5 -6 6 -1 11 2 17 5 13 3 -3 4 -12 1 -19z m-3125 -87 c-6 -4 -69 -6
-139 -4 -155 2 -164 3 -135 11 31 9 289 3 274 -7z m70 -4 c-24 -7 -36 -7 -44
1 -9 9 -1 12 33 11 l44 -1 -33 -11z m98 -1 c-36 -13 -50 -12 -50 5 0 5 19 9
43 8 l42 0 -35 -13z m83 7 c-7 -2 -19 -2 -25 0 -7 3 -2 5 12 5 14 0 19 -2 13
-5z m77 -3 c12 -8 12 -10 -5 -9 -11 0 -29 4 -40 9 -18 8 -18 9 5 9 14 0 32 -4
40 -9z m55 0 c3 -5 -3 -10 -15 -10 -12 0 -18 5 -15 10 3 6 10 10 15 10 5 0 12
-4 15 -10z m140 0 c3 -5 1 -10 -4 -10 -6 0 -11 5 -11 10 0 6 2 10 4 10 3 0 8
-4 11 -10z m88 -7 c-7 -2 -19 -2 -25 0 -7 3 -2 5 12 5 14 0 19 -2 13 -5z m145
0 c-10 -2 -28 -2 -40 0 -13 2 -5 4 17 4 22 1 32 -1 23 -4z m120 0 c-10 -2 -26
-2 -35 0 -10 3 -2 5 17 5 19 0 27 -2 18 -5z m82 -3 c0 -5 -2 -10 -4 -10 -3 0
-8 5 -11 10 -3 6 -1 10 4 10 6 0 11 -4 11 -10z m-739 -43 c-5 -5 -18 -7 -28
-3 -14 6 -15 9 -4 16 19 11 46 1 32 -13z m179 1 c11 -7 8 -8 -10 -4 -14 3 -38
6 -53 6 -16 0 -26 4 -22 10 6 10 61 3 85 -12z m195 12 c-3 -5 -10 -10 -16 -10
-5 0 -9 5 -9 10 0 6 7 10 16 10 8 0 12 -4 9 -10z m55 0 c0 -5 -5 -10 -11 -10
-5 0 -7 5 -4 10 3 6 8 10 11 10 2 0 4 -4 4 -10z m125 0 c3 -5 -1 -10 -9 -10
-9 0 -16 5 -16 10 0 6 4 10 9 10 6 0 13 -4 16 -10z m-695 -10 c0 -5 -4 -10
-10 -10 -5 0 -10 5 -10 10 0 6 5 10 10 10 6 0 10 -4 10 -10z m32 -5 c0 -5 -5
-11 -11 -13 -6 -2 -11 4 -11 13 0 9 5 15 11 13 6 -2 11 -8 11 -13z m176 4 c-2
-6 -8 -10 -13 -10 -5 0 -11 4 -13 10 -2 6 4 11 13 11 9 0 15 -5 13 -11z m1075
-30 c-4 -15 -8 -17 -14 -8 -8 14 -3 29 11 29 4 0 6 -9 3 -21z m-1153 -9 c0
-11 -4 -20 -9 -20 -5 0 -7 9 -4 20 3 11 7 20 9 20 2 0 4 -9 4 -20z m-243 -22
c-3 -7 -5 -2 -5 12 0 14 2 19 5 13 2 -7 2 -19 0 -25z m185 0 c-15 -15 -26 -4
-18 18 5 13 9 15 18 6 9 -9 9 -15 0 -24z m418 22 c0 -5 -4 -10 -10 -10 -5 0
-10 5 -10 10 0 6 5 10 10 10 6 0 10 -4 10 -10z m-714 -15 c-3 -8 2 -19 12 -24
9 -5 14 -13 10 -16 -10 -10 -38 20 -38 39 0 9 5 16 11 16 6 0 9 -7 5 -15z m71
-7 c-3 -8 -6 -5 -6 6 -1 11 2 17 5 13 3 -3 4 -12 1 -19z m3 -33 c0 -8 -7 -15
-16 -15 -14 0 -14 3 -4 15 7 8 14 15 16 15 2 0 4 -7 4 -15z m37 -17 c-3 -8 -6
-5 -6 6 -1 11 2 17 5 13 3 -3 4 -12 1 -19z m603 12 c0 -5 -2 -10 -4 -10 -3 0
-8 5 -11 10 -3 6 -1 10 4 10 6 0 11 -4 11 -10z m-757 -36 c-4 -11 -8 -12 -20
-3 -11 10 -11 14 -1 20 17 10 28 2 21 -17z m327 -1 c0 -21 -3 -24 -9 -14 -5 8
-7 20 -4 28 8 21 13 15 13 -14z m-250 -45 c0 -25 -17 -31 -23 -8 -3 12 -14 20
-27 20 -18 0 -20 3 -11 14 15 18 61 -1 61 -26z m198 -36 c-2 -25 -6 -29 -32
-29 -30 0 -30 0 -6 11 34 14 34 14 20 31 -10 12 -10 15 4 15 12 0 16 -8 14
-28z m242 9 c0 -12 -39 -21 -45 -11 -3 5 2 13 12 19 18 10 33 6 33 -8z m-352
-21 c-1 -16 -2 -30 -4 -30 -9 0 -24 42 -19 50 12 20 24 9 23 -20z m169 0 c-1
-11 -5 -20 -9 -20 -4 0 -8 9 -8 20 0 11 4 20 9 20 6 0 9 -9 8 -20z m248 10 c3
-5 1 -10 -4 -10 -6 0 -11 5 -11 10 0 6 2 10 4 10 3 0 8 -4 11 -10z m-149 -27
c-10 -10 -19 5 -10 18 6 11 8 11 12 0 2 -7 1 -15 -2 -18z m-306 13 c0 -3 -4
-8 -10 -11 -5 -3 -10 -1 -10 4 0 6 5 11 10 11 6 0 10 -2 10 -4z m265 -5 c7
-12 -12 -24 -25 -16 -11 7 -4 25 10 25 5 0 11 -4 15 -9z m95 -5 c0 -11 -19
-15 -25 -6 -3 5 1 10 9 10 9 0 16 -2 16 -4z m940 -20 c0 -3 -4 -8 -10 -11 -5
-3 -10 -1 -10 4 0 6 5 11 10 11 6 0 10 -2 10 -4z m-707 -30 c5 -13 53 -16 73
-4 14 9 68 13 79 6 6 -3 24 -5 40 -4 17 1 35 -2 42 -7 6 -4 14 -3 18 3 4 7 12
7 25 0 11 -6 23 -10 27 -9 4 1 26 0 48 -1 38 -3 37 -3 -15 -10 -68 -8 -202 -2
-214 10 -6 6 -14 5 -22 -1 -16 -13 -146 -20 -182 -9 -22 6 -24 9 -10 15 9 4
21 4 26 1 5 -3 18 1 28 9 24 18 31 18 37 1z m-113 -18 c0 -5 -18 -8 -40 -8
-22 0 -40 3 -40 8 0 4 18 7 40 7 22 0 40 -3 40 -7z m580 -3 c-4 -9 -25 -10
-65 -6 -5 1 -4 5 3 10 18 11 68 8 62 -4z m110 -19 c-6 -5 -15 -4 -25 4 -8 7
-27 10 -41 7 -14 -2 -22 -1 -17 3 24 23 105 9 83 -14z m164 15 c3 -5 -1 -14
-9 -21 -13 -10 -15 -9 -15 9 0 21 14 28 24 12z m99 2 c-13 -2 -33 -2 -45 0
-13 2 -3 4 22 4 25 0 35 -2 23 -4z m-3859 -43 c23 0 64 -35 54 -45 -3 -3 -17
-1 -32 5 -15 5 -32 8 -37 4 -5 -3 -9 1 -9 8 0 7 -2 22 -4 33 -2 11 -1 14 1 8
3 -7 15 -13 27 -13z m3686 9 c0 -11 -4 -17 -10 -14 -5 3 -10 13 -10 21 0 8 5
14 10 14 6 0 10 -9 10 -21z m-3603 -11 c-3 -8 -6 -5 -6 6 -1 11 2 17 5 13 3
-3 4 -12 1 -19z m233 -9 c0 -5 -4 -9 -10 -9 -5 0 -10 7 -10 16 0 8 5 12 10 9
6 -3 10 -10 10 -16z m59 8 c-9 -7 -19 -21 -21 -32 -5 -19 -5 -19 -13 -1 -6 13
-3 23 10 32 24 17 46 18 24 1z m-219 -22 c0 -8 -7 -15 -15 -15 -16 0 -20 12
-8 23 11 12 23 8 23 -8z m72 -17 c-15 -15 -26 -4 -18 18 5 13 9 15 18 6 9 -9
9 -15 0 -24z m-128 1 c-3 -5 -10 -7 -15 -3 -5 3 -7 10 -3 15 3 5 10 7 15 3 5
-3 7 -10 3 -15z m81 11 c3 -5 1 -10 -4 -10 -6 0 -11 5 -11 10 0 6 2 10 4 10 3
0 8 -4 11 -10z m1385 0 c0 -5 -4 -10 -10 -10 -5 0 -10 5 -10 10 0 6 5 10 10
10 6 0 10 -4 10 -10z m-225 -10 c3 -5 1 -10 -4 -10 -6 0 -11 5 -11 10 0 6 2
10 4 10 3 0 8 -4 11 -10z m-695 -16 c0 -8 -5 -12 -10 -9 -6 4 -8 11 -5 16 9
14 15 11 15 -7z m900 -18 c0 -3 -4 -8 -10 -11 -5 -3 -10 -1 -10 4 0 6 5 11 10
11 6 0 10 -2 10 -4z m106 -33 c-10 -10 -19 5 -10 18 6 11 8 11 12 0 2 -7 1
-15 -2 -18z m159 -53 c3 -5 -3 -10 -14 -10 -11 0 -23 5 -26 10 -3 6 3 10 14
10 11 0 23 -4 26 -10z m162 -20 c-1 -11 -5 -20 -9 -20 -4 0 -8 9 -8 20 0 11 4
20 9 20 6 0 9 -9 8 -20z m1573 -91 c-7 -11 -14 -18 -17 -15 -8 8 5 36 17 36 7
0 7 -6 0 -21z m-1470 -13 c0 -3 -4 -8 -10 -11 -5 -3 -10 -1 -10 4 0 6 5 11 10
11 6 0 10 -2 10 -4z m1430 -81 c-6 -7 -14 -55 -18 -107 -6 -91 -7 -92 -13 -38
-6 54 2 112 24 158 6 13 13 19 15 13 2 -7 -1 -18 -8 -26z m-1237 4 c-5 -5 -20
-5 -33 -2 l-25 7 25 6 c28 8 46 2 33 -11z m147 -23 c0 -3 -4 -8 -10 -11 -5 -3
-10 -1 -10 4 0 6 5 11 10 11 6 0 10 -2 10 -4z m65 -6 c-3 -5 -10 -10 -16 -10
-5 0 -9 5 -9 10 0 6 7 10 16 10 8 0 12 -4 9 -10z m95 1 c0 -4 -11 -6 -25 -3
-14 2 -25 6 -25 8 0 2 11 4 25 4 14 0 25 -4 25 -9z m1076 -51 c16 0 24 -6 25
-17 0 -15 2 -15 7 -3 4 9 24 16 50 18 l42 3 0 -41 c0 -37 -2 -41 -20 -35 -16
5 -20 2 -20 -19 0 -14 5 -26 10 -26 6 0 10 7 10 16 0 8 5 12 11 8 6 -3 9 -17
6 -30 -5 -28 13 -47 37 -38 17 7 22 34 6 34 -5 0 -10 -7 -10 -15 0 -8 -3 -15
-7 -15 -5 0 -8 35 -8 78 l0 77 48 3 c33 2 47 0 42 -7 -8 -14 1 -14 25 -1 16 9
20 7 24 -12 12 -55 10 -92 -5 -82 -7 4 -9 22 -5 48 l6 41 -21 -44 c-17 -36
-19 -49 -10 -63 6 -11 9 -23 6 -28 -4 -6 3 -10 14 -10 14 0 21 -8 23 -27 2
-21 8 -27 31 -28 16 0 32 5 35 12 6 9 11 7 20 -7 12 -19 9 -20 -104 -20 -99 0
-115 2 -110 15 4 11 -1 15 -19 15 -14 0 -25 5 -25 11 0 6 -11 8 -29 4 -43 -9
-78 3 -76 26 1 12 8 25 16 30 12 8 11 11 -4 20 -13 8 -17 18 -13 35 6 23 -9
35 -16 14 -2 -7 -13 -6 -30 2 -28 13 -37 28 -17 28 5 0 7 5 4 11 -4 6 -13 8
-21 5 -7 -3 -16 -1 -19 4 -6 9 32 19 53 14 8 -2 25 -4 38 -4z m394 -12 c15
-10 24 -9 44 2 40 21 41 5 1 -34 -42 -43 -47 -44 -39 -11 5 21 3 25 -15 25
-12 0 -21 6 -21 15 0 18 5 19 30 3z m239 -4 c2 -2 -17 -4 -43 -4 -30 0 -45 4
-41 10 6 9 72 4 84 -6z m-308 -4 c16 -9 19 -19 16 -54 -7 -78 -39 -95 -35 -18
1 26 -2 55 -6 65 -9 20 -3 21 25 7z m609 6 c0 -9 -30 -14 -35 -6 -4 6 3 10 14
10 12 0 21 -2 21 -4z m-370 -20 c0 -3 -4 -8 -10 -11 -5 -3 -10 -1 -10 4 0 6 5
11 10 11 6 0 10 -2 10 -4z m90 -12 c0 -2 -16 -4 -36 -4 -19 0 -33 4 -30 8 5 8
66 4 66 -4z m-780 -31 c0 -20 3 -33 7 -30 10 10 33 -13 33 -33 0 -10 7 -21 15
-24 12 -4 14 -10 5 -25 -11 -21 2 -37 20 -26 6 3 10 1 10 -4 0 -7 -27 -11 -70
-11 -65 0 -81 6 -63 24 4 4 9 22 11 39 1 18 4 43 6 57 1 14 4 35 4 48 3 37 22
25 22 -15z m510 17 c0 -5 -7 -10 -15 -10 -8 0 -15 5 -15 10 0 6 7 10 15 10 8
0 15 -4 15 -10z m600 -34 c0 -11 -19 -15 -25 -6 -3 5 1 10 9 10 9 0 16 -2 16
-4z m-700 -42 c0 -8 -4 -12 -10 -9 -5 3 -10 10 -10 16 0 5 5 9 10 9 6 0 10 -7
10 -16z m120 -10 c0 -8 -5 -12 -10 -9 -6 4 -8 11 -5 16 9 14 15 11 15 -7z m85
6 c3 -5 1 -10 -4 -10 -6 0 -11 5 -11 10 0 6 2 10 4 10 3 0 8 -4 11 -10z m190
-10 c3 -5 1 -10 -4 -10 -6 0 -11 5 -11 10 0 6 2 10 4 10 3 0 8 -4 11 -10z
m-315 -20 c0 -5 -5 -10 -11 -10 -5 0 -7 5 -4 10 3 6 8 10 11 10 2 0 4 -4 4
-10z m110 0 c0 -5 -12 -10 -27 -10 -22 0 -25 2 -13 10 20 13 40 13 40 0z m90
-39 c0 -8 -61 -22 -69 -15 -2 1 12 7 30 13 19 5 35 10 37 10 1 1 2 -3 2 -8z
m-420 -11 c0 -6 -30 -10 -71 -10 -44 0 -68 4 -64 10 3 6 35 10 71 10 36 0 64
-4 64 -10z m315 0 c16 -7 13 -9 -17 -9 -20 -1 -40 4 -43 9 -7 12 32 12 60 0z
m201 -3 c4 -4 -9 -7 -29 -7 -20 0 -37 4 -37 9 0 10 55 9 66 -2z m54 3 c0 -13
-11 -13 -30 0 -12 8 -11 10 8 10 12 0 22 -4 22 -10z m517 -16 c-3 -3 -12 -4
-19 -1 -8 3 -5 6 6 6 11 1 17 -2 13 -5z m310 0 c-3 -3 -12 -4 -19 -1 -8 3 -5
6 6 6 11 1 17 -2 13 -5z m-2487 -113 c0 -6 -4 -13 -10 -16 -5 -3 -10 1 -10 9
0 9 5 16 10 16 6 0 10 -4 10 -9z m56 -2 c10 -17 -13 -36 -27 -22 -12 12 -4 33
11 33 5 0 12 -5 16 -11z m57 -3 c13 -10 15 -15 5 -19 -19 -6 -38 3 -38 19 0
17 10 17 33 0z m167 -11 c0 -8 -7 -15 -15 -15 -26 0 -18 20 13 29 1 1 2 -6 2
-14z m80 -1 c0 -8 -4 -12 -10 -9 -5 3 -10 10 -10 16 0 5 5 9 10 9 6 0 10 -7
10 -16z m390 -22 c0 -5 -7 -17 -15 -28 -14 -18 -14 -17 -4 9 12 27 19 34 19
19z m-710 -28 c0 -14 -4 -23 -9 -20 -5 3 -7 15 -4 26 7 28 13 25 13 -6z m90
16 c12 -8 11 -10 -7 -10 -13 0 -23 5 -23 10 0 13 11 13 30 0z m-50 -10 c0 -5
-2 -10 -4 -10 -3 0 -8 5 -11 10 -3 6 -1 10 4 10 6 0 11 -4 11 -10z m385 0 c3
-5 1 -10 -4 -10 -6 0 -11 5 -11 10 0 6 2 10 4 10 3 0 8 -4 11 -10z m42 -12
c-3 -8 -6 -5 -6 6 -1 11 2 17 5 13 3 -3 4 -12 1 -19z m-137 -13 c0 -8 -2 -15
-4 -15 -2 0 -6 7 -10 15 -3 8 -1 15 4 15 6 0 10 -7 10 -15z m-258 -27 c-9 -9
-12 -7 -12 12 0 19 3 21 12 12 9 -9 9 -15 0 -24z m44 5 c-10 -10 -19 5 -10 18
6 11 8 11 12 0 2 -7 1 -15 -2 -18z m444 17 c0 -5 -5 -10 -11 -10 -5 0 -7 5 -4
10 3 6 8 10 11 10 2 0 4 -4 4 -10z m37 -12 c-3 -8 -6 -5 -6 6 -1 11 2 17 5 13
3 -3 4 -12 1 -19z m-437 -4 c0 -8 -4 -12 -10 -9 -5 3 -10 10 -10 16 0 5 5 9
10 9 6 0 10 -7 10 -16z m90 -4 c0 -11 -4 -20 -10 -20 -5 0 -10 9 -10 20 0 11
5 20 10 20 6 0 10 -9 10 -20z m-256 -20 c8 0 11 -15 10 -42 -1 -24 -5 -43 -10
-43 -5 0 -7 6 -6 13 2 8 -6 16 -17 19 -15 4 -21 13 -21 35 0 23 4 29 16 24 9
-3 21 -6 28 -6z m41 0 c3 -5 1 -10 -4 -10 -6 0 -11 5 -11 10 0 6 2 10 4 10 3
0 8 -4 11 -10z m549 -5 c-4 -8 -8 -15 -10 -15 -2 0 -4 7 -4 15 0 8 4 15 10 15
5 0 7 -7 4 -15z m-387 -37 c-3 -8 -6 -5 -6 6 -1 11 2 17 5 13 3 -3 4 -12 1
-19z m80 -3 c-4 -9 -18 -15 -34 -14 l-28 1 28 11 c15 6 27 15 27 21 0 5 3 7 6
3 4 -3 4 -13 1 -22z m99 -2 c-10 -10 -19 5 -10 18 6 11 8 11 12 0 2 -7 1 -15
-2 -18z m189 7 c3 -5 1 -10 -4 -10 -6 0 -11 5 -11 10 0 6 2 10 4 10 3 0 8 -4
11 -10z m-531 -49 c-9 -11 -21 13 -16 32 6 22 6 22 12 -3 4 -14 6 -27 4 -29z
m87 -8 c-9 -15 -10 -12 -10 17 0 29 1 32 10 18 7 -12 7 -24 0 -35z m-121 -38
c0 -18 -4 -23 -15 -19 -16 6 -20 26 -8 37 13 14 23 6 23 -18z m255 -6 c10 -14
1 -21 -19 -13 -9 3 -13 10 -10 15 7 12 21 11 29 -2z m312 -11 c-3 -8 -6 -5 -6
6 -1 11 2 17 5 13 3 -3 4 -12 1 -19z m-192 2 c-27 -12 -35 -12 -35 0 0 6 12
10 28 9 24 0 25 -1 7 -9z m315 0 c0 -5 -5 -10 -11 -10 -5 0 -7 5 -4 10 3 6 8
10 11 10 2 0 4 -4 4 -10z m-141 -77 c1 -7 -3 -13 -9 -13 -5 0 -10 15 -9 33 0
27 2 29 9 12 5 -11 9 -26 9 -32z m-227 -5 c-15 -15 -26 -4 -18 18 5 13 9 15
18 6 9 -9 9 -15 0 -24z m128 5 c0 -5 -5 -15 -10 -23 -9 -13 -11 -13 -19 0 -7
10 -6 17 2 22 15 10 27 10 27 1z m50 -8 c0 -8 -4 -15 -10 -15 -5 0 -10 7 -10
15 0 8 5 15 10 15 6 0 10 -7 10 -15z m-365 -24 c3 -5 1 -12 -5 -16 -5 -3 -10
1 -10 9 0 18 6 21 15 7z m405 -11 c0 -5 -4 -10 -10 -10 -5 0 -10 5 -10 10 0 6
5 10 10 10 6 0 10 -4 10 -10z m-340 -10 c0 -5 -2 -10 -4 -10 -3 0 -8 5 -11 10
-3 6 -1 10 4 10 6 0 11 -4 11 -10z m147 -37 c-3 -10 -5 -4 -5 12 0 17 2 24 5
18 2 -7 2 -21 0 -30z m90 15 c-3 -8 -6 -5 -6 6 -1 11 2 17 5 13 3 -3 4 -12 1
-19z m1936 -7 c5 -21 -14 -34 -37 -25 -11 4 -18 -9 -27 -55 -8 -36 -18 -61
-26 -61 -18 0 -33 -33 -22 -51 15 -24 10 -32 -16 -27 -30 6 -32 -2 -6 -22 28
-19 19 -27 -29 -24 -42 2 -70 14 -33 14 19 0 20 4 16 40 -4 25 -1 46 7 55 7 8
14 30 16 48 2 17 8 41 13 52 5 11 11 27 14 36 7 21 68 34 78 17 6 -9 10 -8 15
5 8 23 30 22 37 -2z m-2072 -14 c16 4 21 2 14 -5 -15 -15 -95 -20 -95 -6 0 16
21 23 41 13 9 -4 27 -5 40 -2z m94 3 c3 -5 1 -10 -4 -10 -6 0 -11 5 -11 10 0
6 2 10 4 10 3 0 8 -4 11 -10z m-189 -9 c-5 -8 -56 -3 -56 5 0 2 14 4 31 4 16
0 28 -4 25 -9z m330 -49 c-11 -10 -15 4 -8 28 l7 25 3 -23 c2 -13 1 -26 -2
-30z m-96 19 c0 -6 -4 -13 -10 -16 -5 -3 -10 1 -10 9 0 9 5 16 10 16 6 0 10
-4 10 -9z m-238 -21 c3 -44 3 -50 -7 -52 -5 -2 -10 14 -11 35 -1 38 15 53 18
17z m146 -47 l-1 -58 -6 45 c-6 42 -4 70 5 70 2 0 3 -26 2 -57z m140 -7 c-13
-16 -18 -1 -11 35 l7 34 6 -30 c4 -16 3 -34 -2 -39z m43 -9 c-8 -8 -11 -3 -11
19 1 25 2 27 11 11 8 -14 8 -22 0 -30z m-144 1 c-3 -8 -6 -5 -6 6 -1 11 2 17
5 13 3 -3 4 -12 1 -19z m57 7 c-6 -16 -34 -21 -34 -7 0 13 11 22 26 22 8 0 11
-6 8 -15z m216 -71 c0 -8 -4 -14 -10 -14 -5 0 -10 9 -10 21 0 11 5 17 10 14 6
-3 10 -13 10 -21z m-162 -74 c-2 -38 -8 -73 -12 -77 -7 -7 -7 126 1 140 11 19
14 1 11 -63z m-53 1 c0 -32 -3 -57 -7 -54 -5 2 -8 22 -8 43 0 21 -4 42 -10 45
-16 10 -12 25 8 25 14 0 17 -9 17 -59z m90 3 c-5 -30 -9 -35 -16 -22 -12 21 0
83 14 69 5 -5 6 -26 2 -47z m-308 24 c-3 -8 -6 -5 -6 6 -1 11 2 17 5 13 3 -3
4 -12 1 -19z m393 13 c0 -6 -4 -13 -10 -16 -5 -3 -10 1 -10 9 0 9 5 16 10 16
6 0 10 -4 10 -9z m-210 -25 c0 -9 -30 -14 -35 -6 -4 6 3 10 14 10 12 0 21 -2
21 -4z m427 -68 c-2 -13 -4 -3 -4 22 0 25 2 35 4 23 2 -13 2 -33 0 -45z m1276
3 c9 -10 7 -13 -8 -9 -12 2 -20 12 -21 23 -1 29 10 44 14 20 2 -11 9 -26 15
-34z m142 19 c3 -5 -1 -10 -9 -10 -9 0 -16 5 -16 10 0 6 4 10 9 10 6 0 13 -4
16 -10z m-100 -20 c3 -5 -1 -10 -10 -10 -9 0 -13 5 -10 10 3 6 8 10 10 10 2 0
7 -4 10 -10z m-1538 -52 c-3 -8 -6 -5 -6 6 -1 11 2 17 5 13 3 -3 4 -12 1 -19z
m-119 -13 c-3 -3 -13 -2 -22 1 -14 5 -15 9 -4 15 13 8 36 -6 26 -16z m-58 5
c0 -5 -4 -10 -10 -10 -5 0 -10 5 -10 10 0 6 5 10 10 10 6 0 10 -4 10 -10z
m1217 -22 c-3 -8 -6 -5 -6 6 -1 11 2 17 5 13 3 -3 4 -12 1 -19z m-1134 -14
c14 -5 14 -23 0 -64 -4 -11 -7 -10 -14 7 -5 15 -14 21 -24 17 -21 -9 -20 22 3
35 21 13 17 12 35 5z m1707 -19 c0 -8 -2 -15 -4 -15 -2 0 -6 7 -10 15 -3 8 -1
15 4 15 6 0 10 -7 10 -15z m-1828 -78 c-4 -27 -6 -29 -12 -11 -5 11 -5 33 -2
49 4 24 6 26 12 11 3 -10 4 -32 2 -49z m1794 37 c-3 -8 0 -14 6 -14 6 0 9 -2
6 -5 -3 -3 -12 -3 -21 0 -12 5 -14 16 -8 43 1 2 6 0 12 -3 6 -4 8 -13 5 -21z
m-1706 -25 c0 -5 -4 -9 -10 -9 -5 0 -10 7 -10 16 0 8 5 12 10 9 6 -3 10 -10
10 -16z m640 -29 c0 -5 -4 -10 -10 -10 -5 0 -10 5 -10 10 0 6 5 10 10 10 6 0
10 -4 10 -10z m-640 -9 c0 -5 -13 -11 -30 -13 -17 -3 -30 0 -30 6 0 6 14 12
30 13 17 1 30 -2 30 -6z m920 -11 c38 -10 21 -24 -32 -26 -45 -2 -48 -1 -46
21 2 26 1 25 78 5z m-337 -71 l-7 -34 -8 30 c-9 35 -2 63 12 49 6 -6 7 -25 3
-45z m37 32 c0 -6 -4 -13 -10 -16 -5 -3 -10 1 -10 9 0 9 5 16 10 16 6 0 10 -4
10 -9z m1107 -57 c-3 -3 -12 -4 -19 -1 -8 3 -5 6 6 6 11 1 17 -2 13 -5z m-232
-133 c3 -5 1 -12 -5 -16 -5 -3 -10 1 -10 9 0 18 6 21 15 7z m55 -35 c0 -3 -4
-8 -10 -11 -5 -3 -10 -1 -10 4 0 6 5 11 10 11 6 0 10 -2 10 -4z m-80 -66 c0
-5 -4 -10 -10 -10 -5 0 -10 5 -10 10 0 6 5 10 10 10 6 0 10 -4 10 -10z m649
-41 c-20 -12 -22 -4 -7 20 11 18 14 19 16 5 2 -9 -2 -20 -9 -25z m-679 -14 c0
-8 -7 -15 -15 -15 -16 0 -20 12 -8 23 11 12 23 8 23 -8z m-588 -47 c-7 -7 -12
-8 -12 -2 0 6 3 14 7 17 3 4 9 5 12 2 2 -3 -1 -11 -7 -17z m638 7 c-10 -12
-10 -15 4 -15 20 0 21 -26 1 -33 -16 -7 -20 -3 -29 36 -5 23 -3 27 15 27 18 0
19 -2 9 -15z m-50 -9 c0 -11 -19 -15 -25 -6 -3 5 1 10 9 10 9 0 16 -2 16 -4z
m-47 -79 c3 -8 1 -20 -4 -28 -5 -9 -9 -9 -9 -2 0 6 -3 18 -6 27 -3 9 -2 16 4
16 5 0 12 -6 15 -13z m107 3 c0 -5 15 -20 33 -32 19 -12 41 -34 49 -49 15 -25
15 -26 -3 -22 -16 4 -19 0 -19 -26 0 -17 -4 -31 -10 -31 -5 0 -10 7 -10 15 0
27 -17 16 -23 -15 -8 -36 -20 -38 -34 -7 l-11 22 -10 -26 c-6 -15 -18 -29 -27
-33 -9 -3 -15 -12 -13 -20 2 -8 -6 -22 -17 -33 -11 -10 -36 -37 -54 -61 -28
-36 -32 -48 -27 -76 7 -38 -5 -54 -24 -31 -10 12 -10 21 -1 41 16 36 14 65 -9
99 -24 36 -25 49 -5 41 9 -3 33 5 55 19 29 19 41 33 46 60 4 24 12 35 24 35
20 0 32 22 34 60 1 18 7 25 21 25 16 0 19 6 17 28 -1 15 2 27 8 27 5 0 10 -4
10 -10z m260 -50 c0 -10 -9 -24 -19 -30 -26 -14 -31 -13 -26 5 3 8 7 22 10 30
7 22 35 18 35 -5z m-66 -5 c-4 -8 -10 -15 -14 -15 -4 0 -10 7 -14 15 -4 10 1
15 14 15 13 0 18 -5 14 -15z m-924 -36 c0 -5 -7 -9 -15 -9 -9 0 -12 6 -9 15 6
15 24 11 24 -6z m30 0 c0 -5 -4 -9 -10 -9 -5 0 -10 7 -10 16 0 8 5 12 10 9 6
-3 10 -10 10 -16z m630 -5 c0 -8 -4 -14 -10 -14 -5 0 -10 9 -10 21 0 11 5 17
10 14 6 -3 10 -13 10 -21z m-43 0 c-3 -3 -12 -4 -19 -1 -8 3 -5 6 6 6 11 1 17
-2 13 -5z m-52 -44 c3 -5 1 -10 -4 -10 -6 0 -11 5 -11 10 0 6 2 10 4 10 3 0 8
-4 11 -10z m-153 -88 c11 -11 13 -85 3 -102 -4 -7 -11 -8 -18 -1 -17 13 -61
17 -66 6 -2 -6 8 -16 23 -23 39 -19 30 -44 -16 -47 l-38 -2 0 44 c0 31 -4 43
-13 41 -7 -2 -14 1 -15 7 -1 5 6 10 16 10 12 0 18 9 20 30 5 54 9 58 53 52 23
-3 46 -10 51 -15z m-134 -150 c-5 -24 -48 -29 -48 -5 0 13 8 19 26 21 19 1 25
-2 22 -16z m-440 -16 c3 -3 -19 -6 -49 -6 -38 0 -50 3 -39 10 15 9 77 6 88 -4z
m-397 -58 c-26 -20 -105 -25 -117 -7 -5 8 1 10 20 7 16 -3 29 0 34 7 7 14 60
24 76 16 5 -2 -1 -12 -13 -23z m49 -1 c0 -15 -6 -23 -20 -24 -29 -2 -33 14 -8
31 28 20 28 20 28 -7z m2695 -5 c-3 -3 -11 0 -18 7 -9 10 -8 11 6 5 10 -3 15
-9 12 -12z m-1568 2 c-3 -3 -12 -4 -19 -1 -8 3 -5 6 6 6 11 1 17 -2 13 -5z
m-927 -24 c0 -6 -7 -13 -15 -16 -20 -8 -48 3 -40 16 8 13 55 13 55 0z m-470
-64 c0 -2 -7 -7 -16 -10 -8 -3 -12 -2 -9 4 6 10 25 14 25 6z m440 -69 c-14 -7
-25 -19 -25 -27 0 -8 -6 -15 -12 -15 -15 0 -15 1 -7 33 5 17 14 22 38 22 l31
0 -25 -13z m-140 -7 c0 -5 -2 -10 -4 -10 -3 0 -8 5 -11 10 -3 6 -1 10 4 10 6
0 11 -4 11 -10z m60 -16 c0 -9 -7 -14 -17 -12 -25 5 -28 28 -4 28 12 0 21 -6
21 -16z m-316 -92 c7 -12 10 -12 17 -1 6 9 7 3 3 -16 -4 -16 -8 -31 -9 -33 -2
-2 -38 -6 -82 -8 l-78 -5 25 20 c14 12 21 21 16 21 -5 0 0 10 12 23 17 18 30
22 55 19 17 -3 36 -11 41 -20z m209 -51 c-2 -6 6 -11 16 -11 11 0 23 -5 27
-12 5 -8 0 -9 -17 -5 -13 4 -41 7 -61 7 -45 0 -49 12 -10 27 31 12 48 10 45
-6z m-518 -122 c-5 -15 -4 -19 4 -15 6 4 11 0 11 -8 0 -9 -3 -15 -7 -15 -25 4
-35 -3 -30 -21 8 -30 -14 -40 -93 -42 -47 -2 -74 -7 -77 -15 -4 -10 -8 -9 -19
2 -8 7 -14 18 -14 24 0 13 17 14 24 2 3 -5 14 -7 24 -4 13 3 22 19 28 51 10
52 22 58 112 61 40 1 43 -1 37 -20z m253 7 c3 -3 -1 -13 -8 -22 -12 -13 -11
-17 0 -24 20 -12 -40 -37 -99 -41 -42 -4 -45 -3 -44 21 2 40 14 69 32 74 19 6
111 -1 119 -8z m-188 -36 c0 -5 -4 -10 -9 -10 -6 0 -13 5 -16 10 -3 6 1 10 9
10 9 0 16 -4 16 -10z m412 -12 c-6 -6 -15 -8 -19 -4 -4 4 -1 11 7 16 19 12 27
3 12 -12z m-662 -8 c0 -5 -5 -10 -11 -10 -5 0 -7 5 -4 10 3 6 8 10 11 10 2 0
4 -4 4 -10z m597 -17 c3 -7 -4 -9 -16 -6 -12 3 -18 9 -15 15 7 11 26 6 31 -9z
m40 -9 c-3 -3 -12 -4 -19 -1 -8 3 -5 6 6 6 11 1 17 -2 13 -5z m-825 -116 c-7
-7 -12 -8 -12 -2 0 6 3 14 7 17 3 4 9 5 12 2 2 -3 -1 -11 -7 -17z m539 2 c22
-12 27 -45 5 -37 -8 3 -17 0 -19 -7 -6 -16 -108 -11 -118 6 -13 20 10 37 54
41 23 2 46 4 50 5 5 1 17 -3 28 -8z m174 -10 c3 -5 1 -10 -4 -10 -6 0 -11 5
-11 10 0 6 2 10 4 10 3 0 8 -4 11 -10z m35 -34 c0 -3 -4 -8 -10 -11 -5 -3 -10
-1 -10 4 0 6 5 11 10 11 6 0 10 -2 10 -4z m35 -6 c3 -5 1 -10 -4 -10 -6 0 -11
5 -11 10 0 6 2 10 4 10 3 0 8 -4 11 -10z m-33 -211 c-26 -3 -50 -4 -54 -2 -5
2 -8 -5 -8 -16 0 -12 -4 -21 -10 -21 -5 0 -10 -5 -10 -11 0 -7 10 -9 28 -5 20
5 23 4 12 -4 -8 -5 -25 -10 -37 -10 -17 0 -21 5 -18 27 3 34 42 65 75 59 14
-3 32 -1 40 4 9 6 17 5 22 -3 5 -8 -7 -14 -40 -18z m248 2 c0 -3 -11 -7 -24
-7 -16 -1 -23 3 -20 11 5 12 44 9 44 -4z m-487 -8 c4 -3 3 -11 -3 -18 -5 -6
-8 -24 -7 -41 2 -23 -2 -29 -17 -27 -10 0 -36 -5 -58 -13 -40 -14 -98 -9 -98
8 0 6 6 8 14 5 10 -4 16 5 21 29 7 38 12 42 68 47 21 3 41 7 44 11 8 8 28 8
36 -1z m247 -38 c0 -8 -7 -15 -15 -15 -9 0 -12 6 -9 15 4 8 10 15 15 15 5 0 9
-7 9 -15z m27 -7 c-3 -8 -6 -5 -6 6 -1 11 2 17 5 13 3 -3 4 -12 1 -19z m-447
-8 c0 -5 -2 -10 -4 -10 -3 0 -8 5 -11 10 -3 6 -1 10 4 10 6 0 11 -4 11 -10z
m-395 -50 c-3 -5 -11 -10 -16 -10 -6 0 -7 5 -4 10 3 6 11 10 16 10 6 0 7 -4 4
-10z m750 -81 c-16 -4 -41 -7 -54 -8 -38 -2 -12 17 29 21 46 5 63 -5 25 -13z
m60 11 c3 -5 -1 -10 -9 -10 -9 0 -16 5 -16 10 0 6 4 10 9 10 6 0 13 -4 16 -10z
m300 0 c3 -5 1 -10 -4 -10 -6 0 -11 5 -11 10 0 6 2 10 4 10 3 0 8 -4 11 -10z
m-560 -29 c3 -5 -4 -12 -15 -16 -25 -8 -26 -21 -2 -34 15 -8 13 -11 -13 -22
-16 -6 -41 -11 -54 -10 -14 0 -27 -3 -30 -8 -3 -5 -17 -11 -31 -12 -23 -4 -25
0 -28 38 -3 39 -1 43 25 49 15 3 42 10 58 14 42 11 83 12 90 1z m-755 -11 c0
-5 -4 -10 -9 -10 -6 0 -13 5 -16 10 -3 6 1 10 9 10 9 0 16 -4 16 -10z m970 -4
c0 -17 -22 -24 -67 -21 -46 3 -47 4 -35 18 16 19 102 22 102 3z m50 -1 c0 -8
-4 -15 -10 -15 -5 0 -10 7 -10 15 0 8 5 15 10 15 6 0 10 -7 10 -15z m-1063
-21 c3 -9 0 -20 -8 -25 -13 -8 -26 8 -28 34 -2 14 30 7 36 -9z m853 6 c0 -5
-2 -10 -4 -10 -3 0 -8 5 -11 10 -3 6 -1 10 4 10 6 0 11 -4 11 -10z m-250 -12
c-1 -7 -12 -26 -26 -43 -15 -16 -24 -22 -21 -13 3 9 -1 22 -9 29 -13 11 -11
14 13 25 37 16 43 16 43 2z m-80 -17 c0 -5 -7 -14 -15 -21 -8 -7 -15 -25 -15
-41 0 -23 -7 -31 -37 -44 -21 -9 -51 -24 -67 -32 -24 -13 -30 -13 -37 -2 -5 8
-7 20 -4 27 2 6 0 12 -5 12 -6 0 -10 -4 -10 -10 0 -16 -22 -12 -36 8 -20 26
-17 32 15 32 21 0 32 6 36 20 4 12 21 24 48 31 23 6 51 15 62 19 27 12 65 12
65 1z m-589 -34 c-13 -12 -20 -15 -16 -7 14 26 28 41 33 35 3 -3 -5 -16 -17
-28z m599 -14 c0 -19 -3 -24 -10 -17 -6 6 -8 18 -4 27 9 24 14 21 14 -10z
m475 -59 c0 -39 -18 -50 -92 -57 -65 -7 -84 1 -54 22 11 8 16 22 13 37 -4 22
-1 23 54 26 79 5 79 5 79 -28z m-235 -23 c0 -6 -4 -13 -10 -16 -5 -3 -10 1
-10 9 0 9 5 16 10 16 6 0 10 -4 10 -9z m-750 -51 c0 -5 -7 -10 -16 -10 -8 0
-12 5 -9 10 3 6 10 10 16 10 5 0 9 -4 9 -10z m-23 -36 c-3 -3 -12 -4 -19 -1
-8 3 -5 6 6 6 11 1 17 -2 13 -5z m1253 -14 c0 -5 -5 -10 -11 -10 -5 0 -7 5 -4
10 3 6 8 10 11 10 2 0 4 -4 4 -10z m-49 -15 c0 -5 -7 -12 -16 -13 -23 -5 -47
6 -40 19 8 13 56 8 56 -6z m-225 -42 c-10 -10 -19 5 -10 18 6 11 8 11 12 0 2
-7 1 -15 -2 -18z m-36 -17 c-8 -8 -13 -7 -20 4 -7 11 -10 7 -10 -17 0 -26 3
-31 16 -26 12 4 15 2 12 -8 -3 -8 -11 -14 -19 -14 -8 0 -15 -10 -17 -22 -3
-17 -10 -23 -28 -23 -14 0 -23 4 -20 8 3 4 1 26 -4 48 -10 44 -5 53 42 69 37
13 67 0 48 -19z m230 20 c0 -2 -7 -6 -15 -10 -8 -3 -15 -1 -15 4 0 6 7 10 15
10 8 0 15 -2 15 -4z m42 -3 c-6 -2 -10 -9 -6 -14 3 -5 11 -6 17 -2 18 11 38
12 31 2 -3 -5 -9 -7 -14 -4 -4 3 -10 1 -12 -4 -1 -4 -13 -12 -25 -15 -19 -6
-23 -3 -23 12 0 19 13 30 35 30 6 0 4 -2 -3 -5z m-245 -80 c-3 -10 -5 -4 -5
12 0 17 2 24 5 18 2 -7 2 -21 0 -30z m-271 -18 c-3 -26 -16 -48 -16 -27 0 7
-5 12 -11 12 -5 0 -8 -4 -4 -9 3 -5 1 -12 -5 -16 -6 -4 -8 -10 -5 -14 5 -9
-41 -21 -76 -21 -21 0 -29 27 -15 58 9 22 22 27 64 23 12 -1 30 3 40 8 26 16
31 13 28 -14z m-9 -87 c-3 -8 -6 -5 -6 6 -1 11 2 17 5 13 3 -3 4 -12 1 -19z
m521 11 c-2 -6 -20 -17 -41 -24 -30 -10 -37 -10 -37 0 0 16 25 26 45 19 8 -4
15 -1 15 5 0 6 5 11 11 11 6 0 9 -5 7 -11z m-225 -67 c-11 -9 -23 -26 -25 -37
-2 -11 -12 -21 -23 -23 -15 -2 -17 -1 -6 6 24 17 -4 21 -45 7 -26 -9 -38 -19
-36 -29 2 -9 -2 -16 -8 -16 -5 0 -10 7 -10 15 0 8 -7 15 -15 15 -8 0 -12 6 -9
13 5 15 97 47 132 47 11 0 24 5 27 10 3 6 14 10 23 10 14 0 13 -3 -5 -18z
m-309 -71 c9 -14 -22 -22 -52 -14 l-27 7 25 7 c36 10 48 10 54 0z m96 5 c0 -2
-11 -6 -25 -8 -14 -3 -25 -1 -25 3 0 5 11 9 25 9 14 0 25 -2 25 -4z m-175 -57
c-8 -12 -35 -12 -35 0 0 11 22 20 33 14 4 -2 5 -9 2 -14z m-600 -29 c-3 -5
-13 -10 -21 -10 -8 0 -12 5 -9 10 3 6 13 10 21 10 8 0 12 -4 9 -10z m610 -9
c-8 -14 -36 -14 -55 0 -12 8 -9 10 13 6 15 -2 30 0 33 5 3 5 8 7 11 4 3 -2 2
-9 -2 -15z m85 -12 c0 -8 -42 -20 -48 -14 -2 2 -2 8 1 12 6 10 47 12 47 2z
m-70 -15 c0 -10 -28 -34 -39 -34 -12 0 -15 23 -4 33 8 8 43 9 43 1z m615 -54
c4 -6 -6 -10 -22 -10 -22 0 -25 2 -13 10 19 12 27 12 35 0z m-75 -10 c0 -5 -5
-10 -11 -10 -5 0 -7 5 -4 10 3 6 8 10 11 10 2 0 4 -4 4 -10z m-210 -32 c-36
-34 -120 -46 -120 -18 0 13 78 33 92 24 6 -4 8 -3 4 4 -3 6 2 12 11 14 30 7
36 -3 13 -24z m-260 -56 c0 -11 -37 -32 -44 -25 -8 9 14 33 30 33 8 0 14 -3
14 -8z m200 -32 c0 -5 -12 -12 -27 -16 -16 -3 -34 -7 -41 -10 -21 -6 -2 17 22
26 29 12 46 12 46 0z m-293 -6 c-3 -3 -12 -4 -19 -1 -8 3 -5 6 6 6 11 1 17 -2
13 -5z m188 -14 c3 -5 1 -10 -4 -10 -6 0 -11 5 -11 10 0 6 2 10 4 10 3 0 8 -4
11 -10z m-125 -10 c0 -5 -4 -10 -10 -10 -5 0 -10 5 -10 10 0 6 5 10 10 10 6 0
10 -4 10 -10z m-53 -33 c7 -5 10 -14 7 -19 -4 -6 0 -14 7 -19 11 -7 10 -9 -4
-9 -10 0 -20 7 -24 16 -3 9 -13 14 -24 11 -13 -4 -19 0 -19 12 0 31 23 35 57
8z m-557 -7 c0 -5 -2 -10 -4 -10 -3 0 -8 5 -11 10 -3 6 -1 10 4 10 6 0 11 -4
11 -10z m339 -29 c13 -12 18 -22 11 -26 -5 -3 -10 -14 -10 -24 0 -26 -37 -34
-43 -10 -7 26 -27 24 -27 -2 0 -35 -25 -15 -28 22 -3 33 -1 36 35 46 21 6 38
11 39 12 1 0 11 -8 23 -18z m291 9 c0 -5 -9 -10 -20 -10 -11 0 -20 5 -20 10 0
6 9 10 20 10 11 0 20 -4 20 -10z m-400 -30 c0 -8 -53 -27 -85 -30 -22 -3 -13
17 12 27 36 14 73 16 73 3z m315 0 c4 -6 -5 -10 -19 -10 -14 0 -26 5 -26 10 0
6 9 10 19 10 11 0 23 -4 26 -10z m-769 -57 c-10 -10 -19 5 -10 18 6 11 8 11
12 0 2 -7 1 -15 -2 -18z m818 -62 c3 -5 -10 -21 -29 -35 -24 -19 -41 -25 -58
-21 -17 5 -26 2 -30 -8 -4 -12 -16 -14 -46 -10 -37 5 -41 4 -41 -17 0 -16 -4
-20 -16 -16 -9 3 -20 6 -25 6 -5 0 -9 4 -9 10 0 12 64 40 91 40 10 0 23 9 28
19 15 28 122 53 135 32z m-261 -108 c-2 -7 4 -10 12 -7 8 4 15 1 15 -5 0 -6
-13 -11 -30 -11 -16 0 -29 -4 -27 -9 3 -11 -80 -101 -94 -101 -13 0 -11 14 3
28 10 10 8 14 -10 18 -12 4 -22 10 -22 15 0 5 -7 9 -16 9 -8 0 -13 -4 -10 -8
5 -8 -46 -52 -59 -52 -4 0 -5 10 -3 22 3 23 107 88 141 88 10 0 25 7 34 16 18
17 69 15 66 -3z m1153 -72 c-5 -8 -56 -3 -56 5 0 2 14 4 31 4 16 0 28 -4 25
-9z m-1429 -86 c-2 -61 -10 -69 -25 -27 l-10 27 -1 -27 c-1 -31 -6 -33 -40
-14 l-24 13 42 42 c22 22 45 41 51 41 5 0 9 -24 7 -55z m1063 5 c0 -5 -7 -7
-15 -4 -8 4 -15 8 -15 10 0 2 7 4 15 4 8 0 15 -4 15 -10z m-1394 -20 c12 -12
6 -70 -7 -70 -5 0 -14 12 -20 27 -15 41 2 68 27 43z m164 -156 c0 -8 4 -13 9
-9 5 3 12 1 16 -5 4 -6 -4 -10 -19 -10 -25 0 -37 15 -28 37 5 16 22 6 22 -13z
m-223 -16 c-3 -8 -6 -5 -6 6 -1 11 2 17 5 13 3 -3 4 -12 1 -19z m273 -58 c0
-11 -4 -20 -8 -20 -4 0 -8 9 -9 20 -1 11 2 20 8 20 5 0 9 -9 9 -20z m1080
-130 c-8 -5 -22 -10 -30 -10 -13 0 -13 1 0 10 8 5 22 10 30 10 13 0 13 -1 0
-10z m-66 -46 c3 -8 2 -12 -4 -9 -6 3 -10 10 -10 16 0 14 7 11 14 -7z m-1006
-233 c-2 -14 -7 -25 -13 -23 -14 3 -25 51 -14 58 5 3 9 17 10 32 1 25 1 25 10
-7 6 -18 9 -45 7 -60z m948 33 c-3 -8 -10 -12 -16 -9 -7 4 -6 14 2 28 12 24
24 8 14 -19z m238 5 c-4 -6 -11 -6 -20 2 -21 17 -17 31 6 19 11 -6 18 -15 14
-21z m16 -56 c-1 -24 -2 -26 -11 -10 -5 9 -7 22 -4 27 10 17 15 11 15 -17z
m-260 -33 c5 -9 2 -23 -6 -35 -13 -17 -14 -14 -13 31 0 27 3 42 6 34 3 -8 9
-22 13 -30z"/>
<path d="M1152 7131 c-19 -62 -15 -134 7 -153 19 -16 20 -15 17 83 -2 55 -6
102 -8 104 -3 3 -10 -12 -16 -34z"/>
<path d="M1390 7070 c0 -5 5 -10 11 -10 5 0 7 5 4 10 -3 6 -8 10 -11 10 -2 0
-4 -4 -4 -10z"/>
<path d="M1803 7273 c9 -2 25 -2 35 0 9 3 1 5 -18 5 -19 0 -27 -2 -17 -5z"/>
<path d="M1076 6727 c3 -10 9 -15 12 -12 3 3 0 11 -7 18 -10 9 -11 8 -5 -6z"/>
<path d="M3960 5631 c0 -12 5 -21 10 -21 6 0 10 6 10 14 0 8 -4 18 -10 21 -5
3 -10 -3 -10 -14z"/>
<path d="M3847 5634 c-8 -8 1 -24 14 -24 5 0 9 7 9 15 0 15 -12 20 -23 9z"/>
<path d="M4007 5634 c-8 -8 1 -24 14 -24 5 0 9 7 9 15 0 15 -12 20 -23 9z"/>
<path d="M3996 5585 c-3 -8 -1 -15 4 -15 6 0 10 7 10 15 0 8 -2 15 -4 15 -2 0
-6 -7 -10 -15z"/>
<path d="M3850 5580 c0 -5 5 -10 10 -10 6 0 10 5 10 10 0 6 -4 10 -10 10 -5 0
-10 -4 -10 -10z"/>
<path d="M3840 5535 c0 -8 9 -15 20 -15 11 0 20 7 20 15 0 8 -9 15 -20 15 -11
0 -20 -7 -20 -15z"/>
<path d="M4003 5533 c-15 -6 -18 -63 -3 -63 6 0 10 5 10 10 0 6 7 10 15 10 8
0 15 -4 15 -10 0 -5 9 -10 20 -10 13 0 18 5 14 15 -4 8 -13 15 -21 15 -8 0
-17 9 -20 20 -5 21 -9 22 -30 13z"/>
<path d="M5156 4783 c-6 -14 -5 -15 5 -6 7 7 10 15 7 18 -3 3 -9 -2 -12 -12z"/>
<path d="M3350 3082 c0 -5 14 -7 30 -4 17 2 30 6 30 8 0 2 -13 4 -30 4 -16 0
-30 -4 -30 -8z"/>
<path d="M3030 1791 c0 -12 29 -23 41 -15 18 10 9 24 -16 24 -14 0 -25 -4 -25
-9z"/>
<path d="M2790 1180 c0 -5 5 -10 11 -10 5 0 7 5 4 10 -3 6 -8 10 -11 10 -2 0
-4 -4 -4 -10z"/>
<path d="M3025 1040 c3 -5 8 -10 11 -10 2 0 4 5 4 10 0 6 -5 10 -11 10 -5 0
-7 -4 -4 -10z"/>
<path d="M2078 6513 c6 -2 18 -2 25 0 6 3 1 5 -13 5 -14 0 -19 -2 -12 -5z"/>
<path d="M2234 6492 c-12 -9 -16 -52 -5 -52 6 0 13 9 16 20 4 12 15 20 27 20
12 0 19 2 16 5 -9 9 -44 14 -54 7z"/>
<path d="M2480 6490 c0 -5 5 -10 11 -10 5 0 7 5 4 10 -3 6 -8 10 -11 10 -2 0
-4 -4 -4 -10z"/>
<path d="M2060 6480 c-12 -8 -10 -10 8 -10 13 0 20 4 17 10 -7 12 -6 12 -25 0z"/>
<path d="M2168 6473 c7 -3 16 -2 19 1 4 3 -2 6 -13 5 -11 0 -14 -3 -6 -6z"/>
<path d="M2293 6463 c-48 -9 -20 -18 57 -18 79 0 105 9 53 18 -34 6 -80 6
-110 0z"/>
<path d="M2130 6452 c0 -15 51 -25 63 -13 8 8 7 11 -3 11 -8 0 -25 3 -37 6
-13 4 -23 2 -23 -4z"/>
<path d="M2050 6434 c0 -8 5 -12 10 -9 6 3 10 10 10 16 0 5 -4 9 -10 9 -5 0
-10 -7 -10 -16z"/>
<path d="M2348 6433 c7 -3 16 -2 19 1 4 3 -2 6 -13 5 -11 0 -14 -3 -6 -6z"/>
<path d="M2315 6419 c-9 -14 0 -22 18 -17 13 2 13 5 2 15 -10 9 -16 9 -20 2z"/>
<path d="M2265 6404 c4 -11 10 -27 12 -36 3 -10 14 -18 24 -18 25 0 25 17 0
25 -10 3 -18 13 -17 22 0 9 -5 18 -13 21 -11 3 -12 0 -6 -14z"/>
<path d="M2225 6377 c-4 -10 -3 -23 4 -30 16 -16 23 -3 12 24 -8 22 -10 22
-16 6z"/>
<path d="M1990 6369 c0 -5 5 -7 10 -4 6 3 10 8 10 11 0 2 -4 4 -10 4 -5 0 -10
-5 -10 -11z"/>
<path d="M2170 6370 c0 -5 4 -10 9 -10 6 0 13 5 16 10 3 6 -1 10 -9 10 -9 0
-16 -4 -16 -10z"/>
<path d="M2030 6335 c-10 -12 -10 -15 4 -15 9 0 16 7 16 15 0 8 -2 15 -4 15
-2 0 -9 -7 -16 -15z"/>
<path d="M2196 6304 c-9 -24 -7 -28 9 -14 17 14 20 30 6 30 -5 0 -12 -7 -15
-16z"/>
<path d="M2247 6296 c-19 -29 -21 -42 -8 -50 5 -4 7 2 4 12 -4 15 1 17 34 14
29 -3 43 1 57 17 21 23 8 28 -25 10 -16 -8 -23 -7 -33 6 -11 16 -14 15 -29 -9z"/>
<path d="M1835 6270 c-3 -5 -1 -10 4 -10 6 0 11 5 11 10 0 6 -2 10 -4 10 -3 0
-8 -4 -11 -10z"/>
<path d="M2310 6235 c-7 -9 -21 -13 -35 -9 -13 3 -26 1 -29 -5 -4 -6 -1 -11 6
-12 7 0 30 -2 51 -5 28 -3 37 -1 37 10 0 8 -6 17 -12 19 -7 3 -3 6 10 6 13 1
22 -5 22 -14 0 -8 5 -15 10 -15 14 0 13 13 -2 28 -16 16 -43 15 -58 -3z"/>
<path d="M2026 6222 c-3 -6 -1 -14 5 -17 15 -10 25 3 12 16 -7 7 -13 7 -17 1z"/>
<path d="M2175 6221 c-6 -11 9 -23 19 -14 9 9 7 23 -3 23 -6 0 -12 -4 -16 -9z"/>
<path d="M5 6072 c-7 -18 -10 -15 43 -32 45 -14 68 -6 39 14 -9 7 -17 18 -17
23 0 16 -59 11 -65 -5z"/>
<path d="M199 6027 c14 -14 91 -21 91 -8 0 12 1 12 -58 15 -24 1 -38 -2 -33
-7z"/>
<path d="M1104 6033 c11 -11 46 -14 46 -3 0 6 -12 10 -27 10 -14 0 -23 -3 -19
-7z"/>
<path d="M318 6008 c5 -5 16 -8 23 -6 8 3 3 7 -10 11 -17 4 -21 3 -13 -5z"/>
<path d="M1734 5962 c-7 -4 -8 -15 -3 -27 6 -17 8 -17 8 -2 1 20 12 22 28 6 6
-6 16 -8 22 -4 15 9 3 28 -14 21 -7 -2 -17 0 -21 4 -5 5 -14 6 -20 2z"/>
<path d="M1984 5898 c3 -13 6 -26 6 -30 0 -5 5 -8 10 -8 6 0 10 14 10 30 0 21
-5 30 -16 30 -12 0 -15 -6 -10 -22z"/>
<path d="M1980 5833 c0 -5 7 -16 14 -26 13 -17 14 -16 12 7 0 15 -7 26 -13 26
-7 0 -13 -3 -13 -7z"/>
<path d="M250 5385 c-36 -19 -59 -35 -53 -35 18 0 123 53 123 62 0 10 4 12
-70 -27z"/>
<path d="M331 5371 c-15 -28 -13 -133 3 -154 12 -16 14 -15 20 14 9 48 7 147
-3 154 -6 3 -15 -3 -20 -14z"/>
<path d="M280 5360 c-8 -5 -10 -10 -5 -10 6 0 17 5 25 10 8 5 11 10 5 10 -5 0
-17 -5 -25 -10z"/>
<path d="M83 5297 l-82 -42 0 -142 1 -141 51 30 c29 16 58 35 65 40 7 6 14 9
16 7 2 -2 19 -53 39 -114 19 -60 51 -159 71 -220 19 -60 37 -127 39 -148 6
-49 13 -55 21 -16 3 18 1 38 -5 45 -6 8 -9 21 -5 29 3 8 2 15 -3 15 -4 0 -7
111 -7 246 1 135 -3 248 -7 251 -4 3 -13 0 -20 -5 -24 -20 -89 -53 -94 -48
-11 11 8 38 22 32 21 -8 19 11 -2 24 -15 9 -13 10 11 5 23 -5 27 -3 23 9 -9
22 2 46 20 46 8 0 13 7 11 18 -3 12 -12 16 -31 15 -15 -1 -27 2 -27 8 0 5 6 9
13 9 7 0 18 9 24 19 12 19 11 19 -17 9 -17 -5 -33 -14 -36 -19 -3 -5 -13 0
-23 12 -17 21 -17 23 1 41 13 13 26 17 41 13 17 -5 19 -4 7 4 -21 15 -26 14
-117 -32z m34 -39 c-3 -8 -6 -5 -6 6 -1 11 2 17 5 13 3 -3 4 -12 1 -19z m-19
-26 c5 -16 -9 -14 -33 4 -19 14 -19 14 5 11 13 -2 26 -9 28 -15z m116 -37 c-4
-8 -17 -15 -30 -15 -15 0 -24 6 -24 15 0 10 10 15 30 15 22 0 28 -4 24 -15z"/>
<path d="M256 5324 c-9 -23 -2 -28 13 -10 7 8 8 17 3 20 -6 3 -13 -1 -16 -10z"/>
<path d="M226 5315 c-3 -8 -1 -15 4 -15 6 0 10 7 10 15 0 8 -2 15 -4 15 -2 0
-6 -7 -10 -15z"/>
<path d="M166 5295 c-3 -8 -1 -15 4 -15 13 0 22 18 11 24 -5 3 -11 -1 -15 -9z"/>
<path d="M2501 5264 c0 -11 3 -14 6 -6 3 7 2 16 -1 19 -3 4 -6 -2 -5 -13z"/>
<path d="M2691 5230 c-14 -3 -26 -11 -29 -18 -3 -10 5 -12 32 -7 21 4 42 3 49
-3 8 -7 18 -7 27 -2 12 7 11 10 -5 15 -11 4 -27 10 -35 14 -8 4 -26 5 -39 1z"/>
<path d="M2557 5214 c-8 -8 1 -24 14 -24 5 0 9 7 9 15 0 15 -12 20 -23 9z"/>
<path d="M2615 5200 c-3 -5 -1 -10 4 -10 6 0 11 5 11 10 0 6 -2 10 -4 10 -3 0
-8 -4 -11 -10z"/>
<path d="M2713 5179 c-1 -10 2 -19 8 -19 11 0 12 27 1 34 -4 2 -9 -4 -9 -15z"/>
<path d="M2667 5156 c-4 -10 -5 -21 -2 -24 9 -9 17 6 13 25 -3 17 -4 17 -11
-1z"/>
<path d="M2750 5145 c0 -8 2 -15 4 -15 2 0 6 7 10 15 3 8 1 15 -4 15 -6 0 -10
-7 -10 -15z"/>
<path d="M2710 5130 c0 -19 3 -21 12 -12 9 9 9 15 0 24 -9 9 -12 7 -12 -12z"/>
<path d="M2768 5123 c-12 -3 -18 -14 -17 -31 l0 -27 10 24 c9 23 10 23 24 5 7
-10 9 -20 4 -22 -5 -2 -9 -18 -9 -35 0 -19 4 -27 9 -21 16 15 19 115 4 113 -5
-1 -16 -3 -25 -6z"/>
<path d="M2580 5082 c0 -10 22 -32 32 -32 5 0 3 9 -4 20 -13 20 -28 27 -28 12z"/>
<path d="M2700 5059 c0 -24 23 -21 28 4 2 10 -3 17 -12 17 -10 0 -16 -9 -16
-21z"/>
<path d="M2660 5044 c0 -8 5 -12 10 -9 6 3 10 10 10 16 0 5 -4 9 -10 9 -5 0
-10 -7 -10 -16z"/>
<path d="M2781 4974 c0 -11 3 -14 6 -6 3 7 2 16 -1 19 -3 4 -6 -2 -5 -13z"/>
<path d="M1040 4970 c0 -5 7 -10 15 -10 8 0 15 5 15 10 0 6 -7 10 -15 10 -8 0
-15 -4 -15 -10z"/>
<path d="M2707 4967 c-3 -8 -1 -20 4 -28 6 -10 9 -7 9 14 0 29 -5 35 -13 14z"/>
<path d="M2845 4970 c-3 -5 -3 -10 2 -10 4 0 2 -4 -5 -9 -8 -5 -12 -17 -10
-26 3 -17 5 -17 18 -3 8 8 21 13 28 10 6 -2 12 1 12 7 0 6 -4 11 -10 11 -5 0
-10 7 -10 15 0 17 -16 20 -25 5z"/>
<path d="M341 4944 c0 -11 3 -14 6 -6 3 7 2 16 -1 19 -3 4 -6 -2 -5 -13z"/>
<path d="M2743 4935 c0 -15 5 -25 14 -25 10 0 13 6 9 16 -3 9 -6 20 -6 25 0 5
-4 9 -9 9 -5 0 -8 -11 -8 -25z"/>
<path d="M2793 4953 c-14 -3 -20 -9 -16 -19 7 -20 26 -17 41 6 7 11 9 19 5 19
-5 -1 -18 -4 -30 -6z"/>
<path d="M2908 4930 c2 -16 8 -30 13 -30 5 0 9 14 9 30 0 18 -5 30 -13 30 -9
0 -12 -10 -9 -30z"/>
<path d="M2759 4896 c-7 -8 -105 -16 -246 -23 -73 -3 -133 -8 -133 -10 0 -2
13 -15 29 -28 27 -24 28 -26 19 -76 -5 -29 -7 -60 -5 -71 3 -10 2 -18 -2 -18
-14 0 -45 40 -46 61 -1 10 -11 28 -23 39 -12 11 -19 27 -16 35 3 7 -5 26 -18
40 l-24 25 -189 -2 -190 -3 3 -155 c4 -242 18 -326 33 -195 1 11 5 0 8 -24 6
-45 31 -71 31 -32 0 22 14 28 25 12 3 -6 25 -20 49 -31 34 -18 47 -20 64 -11
25 13 62 15 62 2 0 -5 11 -11 25 -13 14 -3 25 -2 25 1 0 4 18 7 40 6 22 0 40
-3 40 -7 0 -5 -5 -8 -11 -8 -5 0 -7 -5 -4 -10 4 -6 11 -8 16 -5 5 4 9 1 9 -4
0 -6 5 -11 11 -11 6 0 9 6 6 14 -3 8 1 20 9 26 8 7 14 11 15 9 0 -2 3 -13 6
-24 2 -11 5 -28 6 -37 2 -26 14 -22 25 10 7 17 11 21 11 10 1 -21 21 -25 21
-5 0 16 -37 57 -50 57 -6 0 -10 5 -10 10 0 6 8 10 18 10 22 0 87 -65 78 -78
-4 -7 13 -13 41 -17 71 -10 78 -13 63 -30 -9 -11 -17 -12 -32 -4 -10 6 -33 9
-51 7 -24 -2 -33 -8 -35 -25 -3 -21 -29 -31 -66 -24 -5 1 -23 -1 -40 -6 -31
-7 -31 -7 14 -14 l45 -6 -56 -1 c-256 -7 -441 -21 -434 -33 5 -7 225 -4 440 5
73 3 80 6 83 25 2 11 10 21 18 21 11 0 13 -6 9 -20 -5 -14 -2 -20 10 -20 9 0
13 -5 9 -11 -3 -6 -17 -8 -30 -5 -22 6 -24 3 -24 -26 l0 -33 -18 22 c-12 16
-21 20 -32 13 -8 -5 -19 -6 -25 -2 -11 7 -125 5 -165 -4 -23 -4 -50 -44 -54
-79 0 -5 -9 -11 -18 -13 -12 -2 -16 1 -12 11 4 12 -3 15 -38 12 -24 -2 -49 -4
-56 -4 -7 -1 -10 -6 -7 -11 9 -15 -44 -33 -60 -20 -9 8 -15 6 -20 -7 -10 -27
-4 -489 6 -496 2 -2 108 1 234 6 127 4 327 9 445 10 l215 2 0 390 c0 485 11
853 26 871 6 8 16 11 23 7 6 -3 8 -2 3 2 -12 14 -47 13 -47 -1 0 -7 -5 -16
-11 -20 -7 -4 -10 -1 -7 7 8 23 -46 52 -63 35z m-189 -46 c0 -5 -9 -10 -21
-10 -11 0 -17 5 -14 10 3 6 13 10 21 10 8 0 14 -4 14 -10z m-75 -70 c3 -5 1
-10 -4 -10 -6 0 -11 5 -11 10 0 6 2 10 4 10 3 0 8 -4 11 -10z m-152 -145 c15
-3 27 -12 27 -20 0 -17 -19 -19 -52 -6 -13 5 -32 12 -43 16 -15 5 -16 8 -6 14
7 5 21 7 30 5 9 -1 28 -5 44 -9z m-386 -47 c-3 -8 -6 -5 -6 6 -1 11 2 17 5 13
3 -3 4 -12 1 -19z m544 -145 c13 -16 12 -17 -3 -4 -10 7 -18 15 -18 17 0 8 8
3 21 -13z m53 -4 c-6 -11 -24 -2 -24 11 0 5 7 7 15 4 8 -4 12 -10 9 -15z m49
-45 c-3 -10 1 -17 14 -20 22 -6 24 -41 2 -70 -10 -14 -27 -19 -64 -20 -27 -1
-41 0 -30 3 11 3 25 9 31 14 5 4 20 6 32 2 16 -4 21 -2 18 8 -11 36 -15 99 -6
99 5 0 7 -7 3 -16z m-66 0 c-3 -3 -12 -4 -19 -1 -8 3 -5 6 6 6 11 1 17 -2 13
-5z m192 -41 c0 -32 -3 -42 -8 -29 -7 18 -3 76 5 76 2 0 4 -21 3 -47z m-192
21 c-3 -3 -12 -4 -19 -1 -8 3 -5 6 6 6 11 1 17 -2 13 -5z m229 -31 c-10 -10
-19 5 -10 18 6 11 8 11 12 0 2 -7 1 -15 -2 -18z m-81 -36 c1 -24 -3 -27 -30
-26 -23 1 -25 3 -7 6 23 5 29 18 12 28 -13 8 -2 27 13 22 7 -2 12 -16 12 -30z
m-80 -63 c20 -13 25 -25 25 -60 0 -23 4 -45 9 -48 8 -5 -3 -94 -13 -104 -3 -2
-11 0 -18 4 -7 5 -33 16 -58 24 -27 9 -44 21 -42 29 1 7 -3 20 -10 29 -11 13
-10 15 4 9 10 -3 20 -2 24 4 9 15 -18 41 -38 36 -19 -5 -22 1 -12 26 3 8 13
13 22 11 11 -3 23 6 34 26 19 34 37 37 73 14z m105 -14 c0 -5 -4 -10 -9 -10
-6 0 -13 5 -16 10 -3 6 1 10 9 10 9 0 16 -4 16 -10z m-459 -73 c-6 -6 -11 -19
-11 -28 0 -16 -28 -34 -38 -24 -3 2 3 7 12 11 9 3 16 13 16 21 0 12 -7 11 -35
-6 -27 -15 -35 -17 -35 -6 0 7 9 16 19 20 11 3 21 12 24 19 4 9 15 12 32 8 19
-3 23 -8 16 -15z m139 -5 c0 -14 -2 -14 -9 -3 -5 8 -16 11 -26 7 -9 -3 -22 -3
-28 1 -7 5 0 10 18 14 36 7 45 3 45 -19z m-110 -28 c0 -17 -22 -14 -28 4 -2 7
3 12 12 12 9 0 16 -7 16 -16z m70 7 c0 -5 -8 -11 -18 -13 -11 -3 -19 0 -19 8
0 8 9 14 19 14 10 0 18 -4 18 -9z m95 -11 c3 -5 -1 -10 -9 -10 -8 0 -18 5 -21
10 -3 6 1 10 9 10 8 0 18 -4 21 -10z m285 -50 c0 -5 -11 -10 -25 -10 -14 0
-25 5 -25 10 0 6 11 10 25 10 14 0 25 -4 25 -10z m-290 -32 c0 -6 -6 -8 -14
-5 -14 5 -87 -3 -168 -18 -31 -6 -38 -4 -38 8 0 11 13 18 43 21 105 14 177 12
177 -6z m150 -17 c0 -5 -5 -11 -11 -13 -7 -2 -7 -12 -1 -28 5 -14 6 -34 1 -45
-4 -11 -8 -37 -8 -57 -1 -43 -16 -49 -33 -14 -8 18 -8 37 0 68 6 24 8 55 5 71
-5 24 -2 27 21 27 14 0 26 -4 26 -9z m40 -21 c0 -5 -7 -10 -15 -10 -8 0 -15 5
-15 10 0 6 7 10 15 10 8 0 15 -4 15 -10z m-40 -180 c0 -5 -4 -10 -10 -10 -5 0
-10 5 -10 10 0 6 5 10 10 10 6 0 10 -4 10 -10z m-9 -103 c-13 -13 -15 11 -4
40 7 16 8 15 11 -6 2 -13 -1 -28 -7 -34z m-12 -29 c24 -27 24 -28 6 -48 -23
-25 -55 -26 -55 -2 0 10 6 24 12 30 10 10 10 15 -1 21 -8 6 -11 16 -7 27 4 9
10 13 14 8 4 -5 18 -21 31 -36z"/>
<path d="M2566 4192 c-2 -4 -1 -14 4 -21 10 -17 31 -5 23 14 -6 16 -19 20 -27
7z"/>
<path d="M2590 4133 c0 -5 5 -15 10 -23 8 -12 10 -11 10 8 0 12 -4 22 -10 22
-5 0 -10 -3 -10 -7z"/>
<path d="M2600 4070 c0 -5 5 -10 10 -10 6 0 10 5 10 10 0 6 -4 10 -10 10 -5 0
-10 -4 -10 -10z"/>
<path d="M2334 4858 c-4 -6 1 -17 11 -25 24 -17 41 -17 26 0 -6 8 -8 16 -5 19
2 3 -2 8 -10 11 -9 4 -18 1 -22 -5z"/>
<path d="M2870 4846 c0 -8 5 -18 10 -21 6 -3 10 1 10 9 0 8 -4 18 -10 21 -5 3
-10 -1 -10 -9z"/>
<path d="M1806 4603 c-3 -137 -9 -293 -12 -348 -21 -434 -40 -1093 -31 -1085
5 5 12 65 27 235 20 222 48 1445 33 1445 -6 0 -12 -94 -17 -247z"/>
<path d="M2910 4824 c0 -10 5 -26 10 -34 8 -11 9 -7 4 15 -8 37 -14 45 -14 19z"/>
<path d="M340 4722 c0 -57 -4 -82 -12 -82 -6 0 -4 -6 7 -13 18 -14 13 -43 -6
-32 -5 4 -9 1 -9 -4 0 -6 7 -11 16 -11 12 0 15 -6 10 -22 -3 -13 -6 -27 -6
-32 0 -4 -7 -6 -15 -2 -9 3 -15 0 -15 -9 0 -9 6 -12 15 -9 9 4 15 0 15 -10 0
-9 5 -16 10 -16 7 0 9 52 5 157 -6 168 -15 219 -15 85z"/>
<path d="M2960 4754 c0 -8 5 -12 10 -9 6 4 8 11 5 16 -9 14 -15 11 -15 -7z"/>
<path d="M3007 4764 c-8 -8 1 -24 14 -24 5 0 9 7 9 15 0 15 -12 20 -23 9z"/>
<path d="M2865 4720 c-4 -6 -3 -16 3 -22 6 -6 12 -6 17 2 4 6 3 16 -3 22 -6 6
-12 6 -17 -2z"/>
<path d="M2996 4721 c-7 -10 3 -41 13 -41 10 1 45 29 40 34 -12 10 -48 16 -53
7z"/>
<path d="M2921 4704 c0 -11 3 -14 6 -6 3 7 2 16 -1 19 -3 4 -6 -2 -5 -13z"/>
<path d="M2950 4710 c0 -5 5 -10 10 -10 6 0 10 5 10 10 0 6 -4 10 -10 10 -5 0
-10 -4 -10 -10z"/>
<path d="M2901 4664 c0 -11 3 -14 6 -6 3 7 2 16 -1 19 -3 4 -6 -2 -5 -13z"/>
<path d="M2962 4660 c0 -14 2 -19 5 -12 2 6 2 18 0 25 -3 6 -5 1 -5 -13z"/>
<path d="M3067 4653 c-3 -5 -20 -10 -38 -11 -41 -3 -52 -12 -16 -12 17 0 27
-5 27 -15 0 -10 -10 -15 -32 -15 -35 0 -33 -10 4 -14 12 -2 33 -6 44 -10 23
-7 42 18 23 30 -7 4 -7 10 0 18 5 6 6 18 2 25 -5 7 -11 9 -14 4z"/>
<path d="M2905 4630 c3 -5 8 -10 11 -10 2 0 4 5 4 10 0 6 -5 10 -11 10 -5 0
-7 -4 -4 -10z"/>
<path d="M2905 4600 c-3 -5 -1 -10 4 -10 6 0 11 5 11 10 0 6 -2 10 -4 10 -3 0
-8 -4 -11 -10z"/>
<path d="M2985 4550 c-20 -5 -23 -8 -10 -9 11 -1 31 -4 44 -8 17 -4 22 -2 19
7 -5 17 -16 19 -53 10z"/>
<path d="M3071 4544 c0 -11 3 -14 6 -6 3 7 2 16 -1 19 -3 4 -6 -2 -5 -13z"/>
<path d="M728 4511 c-15 -38 -23 -297 -9 -305 6 -4 181 -10 388 -13 208 -3
429 -7 491 -10 112 -4 112 -4 112 19 0 61 -6 65 -87 67 -42 1 -80 4 -84 7 -4
2 -85 5 -181 6 -116 1 -185 6 -208 15 l-35 13 55 -4 c30 -2 65 1 78 7 18 8 25
8 32 -3 5 -7 15 -10 26 -6 9 4 40 9 68 12 28 3 53 8 55 10 6 5 -157 9 -247 5
-40 -1 -78 2 -85 7 -7 5 -21 12 -32 15 -23 6 277 -1 344 -8 25 -3 47 -9 50
-13 3 -5 15 -11 26 -14 11 -3 29 -9 40 -14 18 -7 19 -6 5 10 -13 17 -10 18 80
15 79 -3 95 -2 95 11 0 10 -11 16 -30 17 -50 4 -220 11 -395 18 -174 7 -283
21 -274 37 8 13 -20 69 -48 95 -17 16 -38 22 -79 24 -30 1 -61 -1 -67 -5 -7
-4 -18 -4 -24 0 -26 17 -50 11 -60 -15z"/>
<path d="M79 4510 c-4 -10 -17 -14 -42 -12 l-37 4 0 -504 c0 -315 4 -497 10
-488 7 12 11 10 18 -10 9 -23 11 -24 18 -6 7 18 8 18 17 -5 10 -23 11 -22 17
16 l5 40 9 -45 c11 -59 17 -691 7 -727 l-8 -28 -17 39 c-9 21 -16 46 -16 56 0
24 -11 32 -26 19 -15 -12 -20 -5 -27 41 -2 14 -5 -118 -6 -292 l-1 -318 53 0
c53 0 54 0 49 -28 -3 -25 -8 -29 -40 -30 -22 -1 -42 -9 -49 -19 -17 -23 -17
-165 -1 -182 11 -11 11 -14 0 -18 -21 -8 -13 -21 18 -28 39 -9 39 -25 0 -25
-23 0 -30 -4 -30 -20 0 -11 5 -20 12 -20 9 0 9 -3 0 -12 -7 -7 -12 -18 -12
-25 0 -11 5 -11 20 -3 11 6 20 17 20 25 0 8 7 15 16 15 12 0 7 -12 -20 -44
l-36 -44 0 -431 c0 -237 4 -431 9 -431 4 0 20 9 34 20 14 11 30 20 36 20 5 0
27 18 47 40 32 35 40 39 52 27 19 -20 -5 -62 -25 -45 -10 8 -24 1 -55 -27 -65
-57 -66 -58 -40 -50 12 3 22 2 22 -3 0 -16 -31 -23 -46 -11 -8 6 -15 9 -15 5
-1 -3 -2 -10 -3 -15 0 -5 -4 -13 -8 -17 -4 -4 -8 -211 -8 -460 l0 -454 53 0
c30 0 57 3 61 7 4 5 20 8 34 8 23 0 27 4 24 28 -3 29 24 40 30 12 2 -10 7 -12
18 -5 13 9 13 12 -3 24 -12 9 -14 16 -7 21 6 4 17 1 25 -5 9 -7 15 -8 15 -2 0
5 -7 15 -15 22 -8 7 -12 17 -9 22 4 7 9 7 13 0 7 -12 51 3 51 18 0 9 -20 14
-46 11 -14 -2 -26 27 -18 41 4 6 10 5 15 -3 7 -11 9 -11 9 2 0 10 11 20 25 23
16 4 25 13 25 25 0 14 5 18 19 14 13 -3 23 4 34 25 17 35 7 52 -29 52 -13 0
-25 4 -29 10 -3 5 -12 7 -20 3 -11 -4 -15 2 -15 21 0 18 4 24 15 20 8 -4 15
-1 15 5 0 7 8 11 17 9 12 -2 19 4 21 19 2 15 8 20 19 16 13 -5 15 -2 10 18 -4
13 -7 27 -7 32 0 4 -7 7 -16 7 -10 0 -14 -6 -11 -14 4 -9 0 -13 -11 -12 -31 5
-22 21 23 41 49 21 54 29 28 39 -11 5 -14 10 -7 14 6 4 14 17 18 30 7 20 4 22
-26 22 -32 0 -32 0 -10 16 26 18 29 34 5 35 -11 0 -8 4 8 8 42 13 69 31 69 45
0 8 8 17 17 20 12 5 13 10 5 18 -8 8 -8 17 -1 30 8 14 6 18 -6 18 -23 0 -40
21 -41 51 -1 22 3 25 32 26 46 1 55 9 50 49 -4 31 -1 36 22 45 24 9 25 12 10
23 -26 19 -33 62 -11 71 16 6 15 8 -7 18 -21 8 -22 11 -8 14 10 3 21 17 24 31
13 65 13 64 -2 51 -8 -6 -14 -18 -14 -25 0 -8 -7 -14 -15 -14 -17 0 -19 12 -5
26 7 7 -2 14 -26 23 -26 9 -39 10 -47 2 -6 -6 -19 -11 -29 -11 -10 0 -18 -4
-18 -10 0 -5 -6 -10 -14 -10 -30 0 -106 -50 -106 -69 0 -12 -3 -12 -12 -3 -6
6 -10 13 -7 15 2 2 22 17 44 34 39 29 124 73 143 73 5 0 43 11 84 24 104 34
190 53 278 61 70 6 158 18 223 31 18 4 27 11 23 19 -2 7 2 16 10 19 8 3 14 12
14 20 0 8 3 16 7 18 12 5 68 121 66 137 -1 8 10 23 23 33 13 11 24 26 24 33 0
8 8 20 18 27 11 7 24 23 30 35 13 24 69 56 83 47 5 -3 12 2 15 11 4 10 13 13
24 10 10 -3 21 -2 23 2 8 12 -20 46 -31 39 -15 -9 -33 19 -26 40 13 40 38 89
51 102 7 7 13 19 13 25 0 7 9 20 20 30 11 9 20 23 20 31 0 8 7 16 15 20 8 3
15 11 15 18 0 8 9 20 21 28 11 8 26 29 34 45 7 17 24 41 37 55 13 14 27 33 31
43 3 9 13 17 21 17 15 0 29 27 20 41 -3 5 5 9 17 9 17 0 20 3 12 11 -8 8 -17
7 -31 -2 -34 -21 -39 0 -7 26 40 32 216 119 285 141 30 10 96 23 145 30 l90
13 -80 -5 c-44 -3 -87 -6 -95 -7 -8 -1 -15 1 -15 4 0 4 -9 17 -20 29 -14 16
-16 24 -7 27 23 8 12 22 -20 25 -31 3 -39 22 -9 23 8 0 16 6 18 13 3 8 -8 12
-34 13 -34 0 -35 1 -14 10 15 6 21 14 17 25 -3 9 -6 21 -6 27 -1 7 -7 -1 -15
-18 -11 -25 -21 -21 -16 7 0 4 -8 12 -19 18 -15 8 -19 17 -14 35 3 13 0 38 -7
54 -12 27 -15 29 -30 15 -15 -13 -16 -11 -16 23 1 51 -11 93 -25 90 -7 -1 -15
12 -18 28 -5 28 -6 29 -18 10 l-11 -20 -2 20 c0 11 -2 31 -2 45 -1 14 -7 24
-14 22 -7 -1 -13 2 -13 8 0 5 4 10 9 10 5 0 9 16 8 35 -1 24 -5 34 -15 32 -7
-1 -20 12 -27 30 -14 32 -14 32 18 38 18 3 52 6 77 8 30 2 21 4 -26 5 -132 3
-158 10 -175 46 -7 17 -14 36 -14 41 0 6 -12 33 -28 60 -15 28 -31 58 -34 68
-3 10 -25 56 -49 103 -27 54 -40 91 -37 105 4 14 0 25 -11 31 -9 5 -16 16 -16
23 0 8 -4 15 -10 15 -5 0 -10 10 -10 23 0 12 -7 35 -15 51 -8 15 -15 37 -15
47 0 11 -5 19 -11 19 -6 0 -8 8 -4 19 4 14 0 23 -15 31 -11 6 -20 21 -20 35 0
13 -7 28 -17 33 -25 15 -25 58 0 70 21 10 21 11 -11 22 -20 8 -31 17 -28 25 2
8 -2 16 -10 19 -8 3 -14 14 -14 25 0 11 -10 26 -22 32 -21 11 -21 12 -3 25 17
13 13 14 -36 14 -30 0 -64 3 -76 6 -17 5 -23 2 -23 -10 0 -22 -17 -20 -23 3
-4 17 -15 19 -111 19 -59 -1 -109 2 -113 6 -4 3 -7 38 -7 76 -1 51 -5 73 -16
80 -8 5 -18 6 -22 4 -8 -5 -13 57 -9 104 1 12 -5 25 -13 28 -8 3 -70 7 -136 7
-134 2 -147 -3 -142 -54 5 -44 -25 -38 -34 6 -3 19 -12 39 -20 46 -12 10 -14
-9 -14 -122 0 -395 -8 -590 -23 -568 -12 17 -57 117 -57 125 0 7 -7 17 -15 24
-8 7 -15 21 -15 31 0 11 -4 19 -10 19 -5 0 -10 5 -10 11 0 6 -9 23 -20 39 -11
15 -17 30 -13 34 3 3 2 6 -4 6 -18 0 -26 60 -32 250 -3 102 -9 178 -12 170z
m249 -114 c12 -3 12 -4 -3 -3 -11 1 -20 9 -21 17 0 8 1 10 3 3 2 -6 12 -14 21
-17z m32 -36 c0 -33 -3 -40 -20 -40 -11 0 -20 4 -20 9 0 9 33 71 38 71 1 0 2
-18 2 -40z m310 -46 c0 -8 -4 -14 -10 -14 -5 0 -10 9 -10 21 0 11 5 17 10 14
6 -3 10 -13 10 -21z m2 -54 c4 -27 3 -29 -10 -16 -8 8 -12 22 -9 30 9 23 14
20 19 -14z m-324 -12 c-17 -25 -38 -35 -38 -19 0 6 6 11 14 11 8 0 16 7 20 15
3 8 8 15 12 15 3 0 0 -10 -8 -22z m-8 -59 c0 -5 -4 -9 -10 -9 -5 0 -10 7 -10
16 0 8 5 12 10 9 6 -3 10 -10 10 -16z m666 -54 c-21 -16 -32 -13 -21 4 3 6 14
11 23 11 15 -1 15 -2 -2 -15z m-49 -11 c-3 -3 -12 -4 -19 -1 -8 3 -5 6 6 6 11
1 17 -2 13 -5z m-617 -120 c0 -2 -7 -4 -15 -4 -8 0 -15 4 -15 10 0 5 7 7 15 4
8 -4 15 -8 15 -10z m337 -31 c-3 -10 -5 -4 -5 12 0 17 2 24 5 18 2 -7 2 -21 0
-30z m-40 -245 c-3 -8 -6 -5 -6 6 -1 11 2 17 5 13 3 -3 4 -12 1 -19z m34 -78
c10 -1 9 -4 -4 -14 -16 -12 -17 -18 -6 -38 6 -13 18 -26 24 -30 7 -5 14 -31
15 -60 2 -52 7 -113 10 -113 1 0 3 -18 5 -39 3 -22 10 -43 16 -47 6 -4 8 -12
4 -18 -4 -7 -1 -18 5 -26 15 -18 8 -21 -70 -34 -44 -7 -48 -9 -20 -10 61 -2
81 -11 78 -35 -1 -11 1 -27 5 -33 5 -8 4 -13 -2 -13 -6 0 -11 -16 -11 -35 0
-20 5 -35 12 -35 6 0 4 -7 -5 -18 -10 -10 -15 -21 -13 -23 2 -2 0 -44 -4 -94
-6 -64 -5 -92 3 -97 8 -5 8 -10 0 -20 -16 -19 -20 -91 -5 -96 6 -2 12 -8 12
-13 0 -6 -4 -7 -10 -4 -5 3 -10 2 -10 -4 0 -5 6 -12 13 -14 7 -3 6 -6 -5 -6
-27 -1 -31 -20 -6 -30 l23 -9 -29 -11 c-24 -10 -26 -14 -16 -26 10 -13 10 -19
-4 -34 -15 -16 -15 -19 -1 -31 20 -16 19 -37 -2 -58 -16 -16 -15 -17 5 -20 29
-4 28 -22 0 -22 -22 -1 -23 -1 -4 -15 19 -15 19 -15 1 -28 -10 -8 -15 -19 -11
-26 4 -6 2 -19 -6 -28 -9 -11 -10 -17 -2 -20 17 -6 8 -118 -12 -148 -19 -29
-37 -28 -43 1 -2 10 -8 22 -15 27 -8 5 -7 10 4 18 11 8 12 12 3 16 -7 2 -13
13 -13 23 0 23 -26 46 -32 29 -7 -22 -29 2 -28 29 3 43 0 48 -14 29 -12 -16
-14 -16 -27 0 -11 13 -11 17 -1 20 21 8 13 20 -10 19 -13 -1 -29 2 -36 8 -9 7
-16 5 -22 -4 -23 -38 -29 61 -36 648 -5 447 -4 492 10 492 9 0 15 -3 15 -7 -4
-22 3 -25 15 -8 10 15 24 20 55 19 22 -1 54 -2 70 -3 20 -1 30 -7 34 -22 3
-12 10 -18 17 -14 6 4 9 13 6 21 -3 7 -1 16 3 19 5 3 12 37 16 76 7 66 8 69
24 55 10 -9 24 -16 32 -16z m939 -570 c0 -5 -4 -10 -10 -10 -5 0 -10 5 -10 10
0 6 5 10 10 10 6 0 10 -4 10 -10z m125 -319 c3 -5 1 -12 -5 -16 -5 -3 -10 1
-10 9 0 18 6 21 15 7z m-1228 -463 c-3 -8 -6 -5 -6 6 -1 11 2 17 5 13 3 -3 4
-12 1 -19z m1033 -12 c0 -2 -7 -7 -16 -10 -8 -3 -12 -2 -9 4 6 10 25 14 25 6z
m-970 -48 c0 -4 -7 -8 -15 -8 -8 0 -15 4 -15 8 0 5 7 9 15 9 8 0 15 -4 15 -9z
m-480 -106 c0 -5 -8 -18 -17 -30 -10 -11 -23 -29 -29 -39 -7 -10 -15 -15 -18
-12 -8 7 44 89 56 89 4 0 8 -4 8 -8z m550 -2 c12 -8 11 -10 -7 -10 -13 0 -23
5 -23 10 0 13 11 13 30 0z m-530 -40 c0 -5 -4 -10 -10 -10 -5 0 -10 5 -10 10
0 6 5 10 10 10 6 0 10 -4 10 -10z m-20 -43 c0 -7 -9 -18 -21 -25 -18 -11 -20
-11 -15 0 3 7 9 21 12 30 7 19 24 15 24 -5z m44 -23 c9 -24 7 -27 -9 -10 -17
17 -19 26 -6 26 5 0 12 -7 15 -16z m-24 -45 c0 -5 -4 -9 -10 -9 -5 0 -10 7
-10 16 0 8 5 12 10 9 6 -3 10 -10 10 -16z m325 -819 c-3 -5 -10 -10 -16 -10
-5 0 -9 5 -9 10 0 6 7 10 16 10 8 0 12 -4 9 -10z m-116 -41 c-18 -11 -39 -11
-39 0 0 11 31 20 44 13 4 -2 2 -8 -5 -13z m144 -10 c-4 -15 -9 -17 -17 -9 -8
8 -7 13 4 20 8 5 16 10 17 10 0 0 -1 -9 -4 -21z m-258 -20 c11 -17 -1 -21 -15
-4 -8 9 -8 15 -2 15 6 0 14 -5 17 -11z m160 -29 c-3 -5 -11 -10 -16 -10 -6 0
-7 5 -4 10 3 6 11 10 16 10 6 0 7 -4 4 -10z m92 -12 c-3 -8 -6 -5 -6 6 -1 11
2 17 5 13 3 -3 4 -12 1 -19z m-342 -78 c-3 -5 -11 -10 -16 -10 -6 0 -7 5 -4
10 3 6 11 10 16 10 6 0 7 -4 4 -10z m-28 -116 c-3 -3 -12 -4 -19 -1 -8 3 -5 6
6 6 11 1 17 -2 13 -5z"/>
<path d="M520 3510 c0 -5 4 -10 9 -10 6 0 13 5 16 10 3 6 -1 10 -9 10 -9 0
-16 -4 -16 -10z"/>
<path d="M530 3470 c0 -5 5 -10 11 -10 5 0 7 5 4 10 -3 6 -8 10 -11 10 -2 0
-4 -4 -4 -10z"/>
<path d="M435 2510 c-3 -5 -1 -10 4 -10 6 0 11 5 11 10 0 6 -2 10 -4 10 -3 0
-8 -4 -11 -10z"/>
<path d="M405 2430 c3 -5 10 -10 16 -10 5 0 9 5 9 10 0 6 -7 10 -16 10 -8 0
-12 -4 -9 -10z"/>
<path d="M610 2190 c0 -5 7 -10 16 -10 8 0 12 5 9 10 -3 6 -10 10 -16 10 -5 0
-9 -4 -9 -10z"/>
<path d="M4995 4510 c3 -5 13 -10 21 -10 8 0 12 5 9 10 -3 6 -13 10 -21 10 -8
0 -12 -4 -9 -10z"/>
<path d="M2871 4494 c0 -11 3 -14 6 -6 3 7 2 16 -1 19 -3 4 -6 -2 -5 -13z"/>
<path d="M3212 4493 c2 -9 8 -18 15 -20 7 -3 9 3 6 16 -6 25 -26 28 -21 4z"/>
<path d="M2995 4490 c3 -5 13 -10 21 -10 19 0 18 -10 -3 -26 -16 -12 -16 -13
8 -14 22 0 26 4 26 30 0 26 -4 30 -29 30 -17 0 -27 -4 -23 -10z"/>
<path d="M3070 4490 c0 -5 5 -10 11 -10 5 0 7 5 4 10 -3 6 -8 10 -11 10 -2 0
-4 -4 -4 -10z"/>
<path d="M3109 4493 c-1 -5 -1 -12 0 -17 1 -4 -4 -14 -10 -22 -9 -11 -8 -14 5
-14 11 0 16 9 16 30 0 26 -8 43 -11 23z"/>
<path d="M670 4470 c0 -5 5 -10 10 -10 6 0 10 5 10 10 0 6 -4 10 -10 10 -5 0
-10 -4 -10 -10z"/>
<path d="M2950 4450 c0 -5 7 -10 15 -10 8 0 15 5 15 10 0 6 -7 10 -15 10 -8 0
-15 -4 -15 -10z"/>
<path d="M3150 4450 c0 -5 9 -10 20 -10 11 0 20 5 20 10 0 6 -9 10 -20 10 -11
0 -20 -4 -20 -10z"/>
<path d="M4560 4450 c0 -5 9 -10 20 -10 11 0 20 5 20 10 0 6 -9 10 -20 10 -11
0 -20 -4 -20 -10z"/>
<path d="M665 4431 c-3 -11 -2 -28 3 -37 8 -14 10 -12 16 11 8 33 -9 57 -19
26z"/>
<path d="M3215 4440 c4 -6 1 -17 -5 -25 -14 -17 -10 -57 6 -62 7 -2 14 12 16
34 5 42 1 63 -14 63 -5 0 -6 -5 -3 -10z"/>
<path d="M3104 4419 c-8 -14 8 -30 22 -21 9 5 8 10 -2 19 -9 9 -15 10 -20 2z"/>
<path d="M3165 4422 c-14 -10 -13 -112 1 -112 6 0 11 6 12 13 0 6 3 31 6 54 5
43 -2 58 -19 45z"/>
<path d="M4921 4414 c0 -11 3 -14 6 -6 3 7 2 16 -1 19 -3 4 -6 -2 -5 -13z"/>
<path d="M3105 4360 c-4 -6 -3 -16 3 -22 6 -6 12 -6 17 2 4 6 3 16 -3 22 -6 6
-12 6 -17 -2z"/>
<path d="M3060 4316 c0 -14 5 -28 10 -31 6 -4 10 7 10 24 0 17 -4 31 -10 31
-5 0 -10 -11 -10 -24z"/>
<path d="M2425 4320 c-3 -5 1 -10 9 -10 9 0 16 5 16 10 0 6 -4 10 -9 10 -6 0
-13 -4 -16 -10z"/>
<path d="M3193 4295 c0 -22 2 -30 4 -17 2 12 2 30 0 40 -3 9 -5 -1 -4 -23z"/>
<path d="M3221 4292 c0 -20 3 -30 6 -22 3 8 10 22 14 32 6 11 4 18 -6 22 -12
4 -15 -3 -14 -32z"/>
<path d="M3540 4308 c0 -13 5 -30 10 -38 7 -11 10 -7 10 17 0 17 -4 35 -10 38
-6 3 -10 -4 -10 -17z"/>
<path d="M3607 4324 c-14 -14 -7 -35 11 -32 9 2 17 10 17 17 0 16 -18 25 -28
15z"/>
<path d="M3811 4288 c0 -28 2 -30 9 -13 12 28 12 45 0 45 -5 0 -10 -15 -9 -32z"/>
<path d="M3437 4300 c-19 -52 -23 -122 -9 -165 13 -41 13 -47 -1 -63 -24 -26
-22 -152 1 -152 16 0 22 10 52 88 7 17 16 32 21 32 12 0 11 57 -1 65 -5 3 -10
16 -10 28 0 12 -7 35 -15 51 -9 16 -19 52 -24 80 -4 28 -10 44 -14 36z m19
-172 l-16 -22 0 25 c0 30 23 59 28 35 2 -9 -4 -26 -12 -38z"/>
<path d="M3775 4300 c-3 -5 -1 -10 4 -10 6 0 11 5 11 10 0 6 -2 10 -4 10 -3 0
-8 -4 -11 -10z"/>
<path d="M3111 4284 c0 -11 3 -14 6 -6 3 7 2 16 -1 19 -3 4 -6 -2 -5 -13z"/>
<path d="M2248 4283 c7 -3 16 -2 19 1 4 3 -2 6 -13 5 -11 0 -14 -3 -6 -6z"/>
<path d="M3155 4270 c-3 -5 -1 -10 4 -10 6 0 11 5 11 10 0 6 -2 10 -4 10 -3 0
-8 -4 -11 -10z"/>
<path d="M4871 4270 c0 -21 27 -55 36 -46 4 4 3 10 -3 14 -6 4 -16 16 -22 27
-8 14 -11 15 -11 5z"/>
<path d="M3375 4250 c-3 -5 1 -10 10 -10 9 0 13 5 10 10 -3 6 -8 10 -10 10 -2
0 -7 -4 -10 -10z"/>
<path d="M3059 4238 c-6 -66 -6 -78 2 -78 5 0 10 10 10 23 1 12 3 32 4 45 1
12 -2 22 -6 22 -5 0 -9 -6 -10 -12z"/>
<path d="M3105 4230 c3 -5 8 -10 11 -10 2 0 4 5 4 10 0 6 -5 10 -11 10 -5 0
-7 -4 -4 -10z"/>
<path d="M3153 4233 c-20 -8 -15 -23 7 -23 11 0 20 7 20 15 0 15 -6 17 -27 8z"/>
<path d="M3230 4230 c0 -5 7 -10 15 -10 8 0 15 5 15 10 0 6 -7 10 -15 10 -8 0
-15 -4 -15 -10z"/>
<path d="M3110 4196 c0 -9 5 -16 10 -16 6 0 10 4 10 9 0 6 -4 13 -10 16 -5 3
-10 -1 -10 -9z"/>
<path d="M4282 4193 c2 -10 11 -19 21 -21 16 -3 17 -1 7 17 -13 25 -33 28 -28
4z"/>
<path d="M2088 4183 c7 -3 16 -2 19 1 4 3 -2 6 -13 5 -11 0 -14 -3 -6 -6z"/>
<path d="M2128 4183 c7 -3 16 -2 19 1 4 3 -2 6 -13 5 -11 0 -14 -3 -6 -6z"/>
<path d="M3272 4168 c2 -6 10 -14 16 -16 7 -2 10 2 6 12 -7 18 -28 22 -22 4z"/>
<path d="M1947 4163 c-4 -3 -7 -18 -6 -32 1 -26 1 -25 10 3 9 31 7 41 -4 29z"/>
<path d="M3598 4163 c7 -3 16 -2 19 1 4 3 -2 6 -13 5 -11 0 -14 -3 -6 -6z"/>
<path d="M4338 4162 c-23 -4 -23 -18 -2 -26 20 -8 27 -3 22 16 -1 7 -11 12
-20 10z"/>
<path d="M3278 4122 c-3 -11 0 -19 8 -19 8 0 15 5 15 11 1 6 5 -7 9 -29 l7
-40 2 36 c2 48 -31 81 -41 41z"/>
<path d="M3154 4119 c-4 -7 -3 -9 4 -5 6 3 12 -3 14 -16 5 -34 30 -36 26 -2
-3 30 -30 44 -44 23z"/>
<path d="M3213 4088 c4 -24 11 -81 17 -128 6 -47 15 -89 20 -94 15 -15 29 3
28 37 0 44 -8 68 -19 62 -12 -8 -11 -1 2 29 7 14 9 42 5 69 -5 34 -13 47 -32
56 l-26 12 5 -43z"/>
<path d="M2986 4097 c3 -10 9 -15 12 -12 3 3 0 11 -7 18 -10 9 -11 8 -5 -6z"/>
<path d="M3823 4083 c-18 -7 -16 -40 2 -47 11 -4 15 2 15 24 0 17 -1 30 -2 29
-2 0 -9 -3 -15 -6z"/>
<path d="M4286 4072 c-3 -6 -1 -14 5 -17 15 -10 25 3 12 16 -7 7 -13 7 -17 1z"/>
<path d="M4339 4078 c-6 -25 -6 -58 0 -58 4 0 16 9 25 19 17 19 17 20 -3 31
-12 6 -21 9 -22 8z"/>
<path d="M3118 4063 c7 -3 16 -2 19 1 4 3 -2 6 -13 5 -11 0 -14 -3 -6 -6z"/>
<path d="M4010 4046 c0 -9 -6 -16 -14 -16 -7 0 -19 -7 -26 -15 -11 -13 -8 -15
18 -15 24 0 31 5 34 25 3 14 1 28 -3 31 -5 3 -9 -2 -9 -10z"/>
<path d="M3177 4016 c-10 -10 -17 -12 -19 -5 -3 8 -18 4 -46 -10 -45 -23 -55
-41 -22 -41 11 0 20 -7 20 -15 0 -8 -6 -15 -13 -15 -8 0 -26 -14 -42 -32 l-28
-31 22 -19 c15 -11 31 -16 47 -12 23 6 24 4 25 -42 l2 -49 10 63 c10 62 14 67
57 64 24 -1 31 20 24 78 -9 73 -16 87 -37 66z m-7 -81 c0 -9 -6 -12 -16 -8
-13 5 -13 7 -2 14 17 11 18 11 18 -6z"/>
<path d="M4010 3906 c0 -20 5 -36 10 -36 6 0 10 13 10 29 0 17 -4 33 -10 36
-6 4 -10 -8 -10 -29z"/>
<path d="M4324 3926 c-3 -8 0 -24 6 -36 16 -29 35 -11 26 24 -7 28 -23 34 -32
12z"/>
<path d="M3832 3880 c0 -14 2 -19 5 -12 2 6 2 18 0 25 -3 6 -5 1 -5 -13z"/>
<path d="M3502 3860 c0 -14 2 -19 5 -12 2 6 2 18 0 25 -3 6 -5 1 -5 -13z"/>
<path d="M3971 3854 c0 -11 3 -14 6 -6 3 7 2 16 -1 19 -3 4 -6 -2 -5 -13z"/>
<path d="M4327 3807 c-13 -34 30 -134 49 -114 4 4 0 15 -9 24 -12 14 -13 22
-5 37 8 15 8 21 0 24 -7 2 -12 10 -12 17 0 19 -17 28 -23 12z"/>
<path d="M4258 3770 c2 -17 8 -33 13 -36 10 -6 12 26 3 50 -10 27 -21 18 -16
-14z"/>
<path d="M3667 3775 c-4 -8 -2 -17 2 -20 5 -2 11 4 14 15 6 23 -8 27 -16 5z"/>
<path d="M4701 3766 c-7 -8 -8 -17 -3 -20 6 -3 13 1 16 10 9 23 2 28 -13 10z"/>
<path d="M3816 3761 c-4 -7 -5 -15 -2 -18 9 -9 19 4 14 18 -4 11 -6 11 -12 0z"/>
<path d="M3815 3712 c-6 -6 4 -22 15 -22 4 0 10 6 13 13 5 13 -17 20 -28 9z"/>
<path d="M3015 3660 c3 -5 8 -10 11 -10 2 0 4 5 4 10 0 6 -5 10 -11 10 -5 0
-7 -4 -4 -10z"/>
<path d="M4010 3635 c0 -27 26 -75 41 -75 12 0 11 47 -1 55 -5 3 -10 15 -10
26 0 10 -7 19 -15 19 -9 0 -15 -9 -15 -25z"/>
<path d="M4178 3623 c7 -3 16 -2 19 1 4 3 -2 6 -13 5 -11 0 -14 -3 -6 -6z"/>
<path d="M3019 3555 c-6 -40 -4 -53 7 -43 3 3 4 23 2 44 l-3 39 -6 -40z"/>
<path d="M3970 3580 c0 -5 7 -10 15 -10 8 0 15 5 15 10 0 6 -7 10 -15 10 -8 0
-15 -4 -15 -10z"/>
<path d="M2871 3554 c0 -11 3 -14 6 -6 3 7 2 16 -1 19 -3 4 -6 -2 -5 -13z"/>
<path d="M3987 3529 c4 -13 9 -17 15 -11 11 11 3 32 -12 32 -4 0 -6 -9 -3 -21z"/>
<path d="M4060 3531 c0 -5 5 -13 10 -16 6 -3 10 -2 10 4 0 5 -4 13 -10 16 -5
3 -10 2 -10 -4z"/>
<path d="M4315 3530 c-3 -5 -1 -10 4 -10 6 0 11 5 11 10 0 6 -2 10 -4 10 -3 0
-8 -4 -11 -10z"/>
<path d="M3102 3505 c0 -16 2 -22 5 -12 2 9 2 23 0 30 -3 6 -5 -1 -5 -18z"/>
<path d="M4230 3506 c0 -9 7 -16 16 -16 9 0 14 5 12 12 -6 18 -28 21 -28 4z"/>
<path d="M2998 3423 c7 -3 16 -2 19 1 4 3 -2 6 -13 5 -11 0 -14 -3 -6 -6z"/>
<path d="M3095 3380 c3 -5 8 -10 11 -10 2 0 4 5 4 10 0 6 -5 10 -11 10 -5 0
-7 -4 -4 -10z"/>
<path d="M2996 3275 c-3 -8 -12 -15 -21 -15 -8 0 -15 -6 -15 -14 0 -11 7 -12
39 -2 45 13 63 26 37 26 -9 0 -14 5 -11 10 3 6 0 10 -8 10 -8 0 -17 -7 -21
-15z"/>
<path d="M3470 3245 c0 -8 5 -15 10 -15 6 0 10 7 10 15 0 8 -4 15 -10 15 -5 0
-10 -7 -10 -15z"/>
<path d="M2923 3242 c-13 -2 -23 -8 -23 -13 0 -13 37 -11 45 2 9 14 5 16 -22
11z"/>
<path d="M2840 3100 c-14 -11 -20 -20 -13 -20 11 0 43 26 43 36 0 7 -4 5 -30
-16z"/>
<path d="M1746 2851 c-4 -7 -5 -15 -2 -18 9 -9 19 4 14 18 -4 11 -6 11 -12 0z"/>
<path d="M2424 2669 c-11 -6 -31 -31 -45 -57 -16 -31 -32 -48 -47 -50 -12 -2
-22 -8 -22 -15 0 -6 -10 -21 -22 -34 -30 -32 -11 -28 36 7 22 17 45 30 52 30
6 0 18 7 25 17 8 9 33 25 57 35 23 10 42 23 42 28 0 5 8 11 18 13 13 4 11 5
-5 6 -13 1 -23 7 -23 16 0 17 -34 19 -66 4z"/>
<path d="M1920 2545 c0 -34 20 -49 35 -25 3 6 1 10 -6 10 -6 0 -9 8 -6 19 3
12 -1 22 -9 25 -10 4 -14 -4 -14 -29z"/>
<path d="M2160 2568 c0 -9 -6 -19 -12 -21 -10 -4 -10 -6 0 -6 14 -1 28 26 18
36 -3 4 -6 -1 -6 -9z"/>
<path d="M2095 2550 c3 -5 8 -10 11 -10 2 0 4 5 4 10 0 6 -5 10 -11 10 -5 0
-7 -4 -4 -10z"/>
<path d="M2122 2509 c2 -6 8 -10 13 -10 5 0 11 4 13 10 2 6 -4 11 -13 11 -9 0
-15 -5 -13 -11z"/>
<path d="M1965 2444 c-93 -15 -148 -31 -228 -69 -37 -18 -55 -31 -49 -37 6 -6
18 -6 32 2 22 12 172 33 318 45 86 7 113 25 40 26 -24 0 -61 4 -83 8 l-40 9
50 1 c28 1 56 5 63 10 25 16 -20 18 -103 5z"/>
<path d="M65 2271 c16 -7 12 -10 -23 -13 l-42 -5 42 1 c42 1 57 19 21 23 -15
2 -15 1 2 -6z"/>
<path d="M2208 2123 c-16 -8 -28 -23 -28 -34 0 -10 -3 -18 -7 -18 -27 4 -43
-5 -57 -36 -9 -19 -21 -37 -26 -40 -13 -8 -13 -25 1 -25 6 0 13 9 16 20 6 22
23 27 23 8 0 -7 4 -20 10 -28 7 -11 14 -8 39 20 33 38 38 50 19 50 -7 0 -6 6
4 18 9 9 13 23 11 30 -3 6 2 12 10 12 7 0 22 9 32 20 17 19 17 20 -1 19 -10
-1 -31 -8 -46 -16z"/>
<path d="M2144 1925 c-9 -21 -2 -26 13 -10 8 9 9 16 3 20 -6 3 -13 -1 -16 -10z"/>
<path d="M2187 1924 c-7 -8 3 -34 13 -34 4 0 10 9 13 20 5 19 -12 28 -26 14z"/>
<path d="M2020 1901 c0 -10 -7 -22 -16 -25 -8 -3 -12 -11 -9 -16 5 -8 12 -7
22 2 13 10 14 8 11 -14 -4 -36 14 -40 26 -6 7 18 6 35 -2 53 -14 29 -32 33
-32 6z"/>
<path d="M1995 1790 c-3 -5 3 -10 14 -10 12 0 21 5 21 10 0 6 -6 10 -14 10 -8
0 -18 -4 -21 -10z"/>
<path d="M2066 1774 c-9 -22 -8 -24 9 -24 8 0 15 9 15 20 0 24 -15 27 -24 4z"/>
<path d="M2366 1755 c-10 -11 -16 -11 -18 -3 -10 29 -185 -137 -224 -212 -14
-28 -30 -50 -34 -50 -7 0 -38 -73 -41 -95 -1 -5 -10 -27 -20 -47 -11 -21 -15
-38 -10 -38 5 0 12 6 14 13 3 7 6 5 6 -5 1 -10 6 -18 12 -18 6 0 9 9 6 19 -3
13 1 21 14 24 11 3 19 14 19 26 0 12 6 21 13 21 8 0 7 4 -3 10 -12 8 -13 13
-2 27 6 10 17 29 22 42 7 14 16 21 25 17 8 -3 22 -3 30 0 20 8 49 68 35 72 -5
2 -10 8 -10 14 0 5 9 7 19 3 14 -4 21 0 26 15 3 11 13 20 20 20 8 0 22 9 32
19 10 10 27 20 38 23 11 2 21 13 23 24 2 12 14 32 28 45 13 12 24 26 24 30 0
15 -30 18 -44 4z"/>
<path d="M2040 1729 c0 -5 5 -7 10 -4 6 3 10 8 10 11 0 2 -4 4 -10 4 -5 0 -10
-5 -10 -11z"/>
<path d="M2340 1616 c0 -7 -13 -27 -30 -44 -32 -34 -38 -52 -17 -52 19 0 80
79 73 95 -7 19 -26 20 -26 1z"/>
<path d="M1982 1410 c0 -19 2 -27 5 -17 2 9 2 25 0 35 -3 9 -5 1 -5 -18z"/>
<path d="M2173 1356 c-38 -36 -56 -81 -48 -113 7 -28 -4 -73 -17 -73 -5 0 -6
18 -3 43 4 27 3 38 -3 32 -15 -16 -34 -84 -27 -96 4 -6 -2 -24 -14 -40 -11
-15 -21 -35 -21 -44 0 -9 -7 -18 -15 -21 -10 -4 -13 -17 -10 -47 2 -23 0 -46
-4 -52 -12 -14 -9 -96 4 -92 5 2 11 12 12 23 1 10 4 33 6 51 2 18 11 41 20 51
9 10 17 27 17 38 0 11 9 25 20 31 10 7 22 29 26 50 3 21 13 45 21 54 7 9 11
25 7 35 -5 15 -4 16 4 5 9 -12 13 -9 22 15 6 16 25 55 41 86 32 63 35 73 17
62 -10 -6 -10 -4 0 8 10 13 10 17 -4 22 -8 3 -16 6 -17 5 -1 -1 -16 -15 -34
-33z"/>
<path d="M2014 1287 c-14 -17 -27 -110 -14 -102 6 3 10 16 10 29 0 12 4 26 9
32 13 13 24 54 14 54 -4 -1 -13 -6 -19 -13z"/>
<path d="M518 1233 c7 -3 16 -2 19 1 4 3 -2 6 -13 5 -11 0 -14 -3 -6 -6z"/>
<path d="M473 1213 c9 -2 23 -2 30 0 6 3 -1 5 -18 5 -16 0 -22 -2 -12 -5z"/>
<path d="M2530 1186 c-5 -13 -18 -27 -29 -31 -12 -3 -21 -10 -21 -15 0 -4 -11
-11 -25 -14 -17 -4 -22 -11 -18 -22 4 -10 -2 -17 -16 -21 -11 -3 -21 -9 -21
-14 0 -17 17 -9 56 29 22 20 52 43 67 51 18 9 27 23 27 38 0 30 -8 29 -20 -1z"/>
<path d="M2530 1100 c0 -5 5 -10 10 -10 6 0 10 5 10 10 0 6 -4 10 -10 10 -5 0
-10 -4 -10 -10z"/>
<path d="M2515 1070 c-3 -5 -1 -10 4 -10 6 0 11 5 11 10 0 6 -2 10 -4 10 -3 0
-8 -4 -11 -10z"/>
<path d="M155 1050 c-3 -5 -2 -10 4 -10 5 0 13 5 16 10 3 6 2 10 -4 10 -5 0
-13 -4 -16 -10z"/>
<path d="M2278 1003 c-10 -2 -18 -13 -18 -23 0 -10 -4 -20 -8 -22 -22 -9 -48
-64 -42 -88 7 -24 7 -24 17 9 7 28 16 37 41 43 18 5 32 15 32 22 0 7 7 19 15
26 12 10 13 16 4 26 -6 8 -14 13 -18 13 -3 -1 -14 -3 -23 -6z"/>
<path d="M2446 995 c-3 -8 -2 -15 3 -15 5 0 14 7 21 15 10 12 10 15 -3 15 -8
0 -17 -7 -21 -15z"/>
<path d="M427 864 c-8 -8 1 -24 14 -24 5 0 9 7 9 15 0 15 -12 20 -23 9z"/>
<path d="M1947 665 c-4 -8 -2 -17 3 -20 6 -4 10 3 10 14 0 25 -6 27 -13 6z"/>
<path d="M1750 630 c0 -5 5 -10 10 -10 6 0 10 5 10 10 0 6 -4 10 -10 10 -5 0
-10 -4 -10 -10z"/>
<path d="M777 453 c-11 -10 -8 -43 3 -43 6 0 10 11 10 25 0 26 -2 29 -13 18z"/>
<path d="M340 410 c0 -5 5 -10 10 -10 6 0 10 5 10 10 0 6 -4 10 -10 10 -5 0
-10 -4 -10 -10z"/>
<path d="M535 390 c11 -18 -5 -32 -21 -19 -13 11 -34 5 -23 -6 8 -7 81 -15 90
-9 14 8 -14 44 -34 44 -10 0 -15 -4 -12 -10z"/>
<path d="M601 380 c0 -14 4 -34 9 -45 7 -19 8 -19 15 -2 4 10 5 21 1 24 -3 3
-1 12 6 20 6 7 8 17 4 20 -4 4 -11 1 -15 -6 -7 -11 -10 -11 -14 0 -3 8 -5 3
-6 -11z"/>
<path d="M709 378 c11 -30 66 -33 66 -4 0 11 -6 21 -12 24 -7 2 -13 -4 -13
-13 0 -9 -5 -13 -10 -10 -6 4 -8 11 -5 16 4 5 -3 9 -14 9 -17 0 -19 -4 -12
-22z"/>
<path d="M680 369 c0 -5 5 -7 10 -4 6 3 10 8 10 11 0 2 -4 4 -10 4 -5 0 -10
-5 -10 -11z"/>
</g>
</svg>
